<svg width="24" height="25" viewBox="0 0 24 25" xmlns="http://www.w3.org/2000/svg">
    <path fill-rule="evenodd" clip-rule="evenodd"
        d="M12.0009 2.57617C9.28508 2.57617 8.94424 2.58805 7.87756 2.63659C6.81297 2.68534 6.08629 2.85388 5.45045 3.10117C4.79274 3.35659 4.23482 3.69826 3.67898 4.2543C3.12272 4.81013 2.78105 5.36805 2.5248 6.02555C2.27688 6.66159 2.10813 7.38846 2.06021 8.45263C2.0125 9.5193 2 9.86034 2 12.5762C2 15.292 2.01208 15.6318 2.06042 16.6985C2.10938 17.763 2.27792 18.4897 2.52501 19.1255C2.78063 19.7833 3.1223 20.3412 3.67835 20.897C4.23398 21.4533 4.7919 21.7958 5.4492 22.0512C6.08546 22.2985 6.81234 22.467 7.87673 22.5158C8.94341 22.5643 9.28403 22.5762 11.9997 22.5762C14.7158 22.5762 15.0556 22.5643 16.1222 22.5158C17.1868 22.467 17.9143 22.2985 18.5506 22.0512C19.2081 21.7958 19.7652 21.4533 20.3208 20.897C20.8771 20.3412 21.2187 19.7833 21.475 19.1258C21.7208 18.4897 21.8896 17.7628 21.9396 16.6987C21.9875 15.632 22 15.292 22 12.5762C22 9.86034 21.9875 9.51951 21.9396 8.45284C21.8896 7.38826 21.7208 6.66159 21.475 6.02576C21.2187 5.36805 20.8771 4.81013 20.3208 4.2543C19.7646 3.69805 19.2083 3.35638 18.55 3.10117C17.9125 2.85388 17.1854 2.68534 16.1208 2.63659C15.0541 2.58805 14.7145 2.57617 11.9978 2.57617H12.0009ZM11.1038 4.37823C11.3701 4.37782 11.6672 4.37823 12.0009 4.37823C14.671 4.37823 14.9874 4.38782 16.0418 4.43573C17.0168 4.48032 17.546 4.64323 17.8985 4.78011C18.3652 4.96136 18.6979 5.17802 19.0477 5.52802C19.3977 5.87802 19.6144 6.21136 19.796 6.67802C19.9329 7.03011 20.096 7.55927 20.1404 8.53427C20.1883 9.58844 20.1987 9.90511 20.1987 12.5739C20.1987 15.2426 20.1883 15.5593 20.1404 16.6134C20.0958 17.5884 19.9329 18.1176 19.796 18.4697C19.6148 18.9364 19.3977 19.2687 19.0477 19.6184C18.6977 19.9684 18.3654 20.1851 17.8985 20.3664C17.5464 20.5039 17.0168 20.6664 16.0418 20.7109C14.9876 20.7589 14.671 20.7693 12.0009 20.7693C9.3307 20.7693 9.01424 20.7589 7.96006 20.7109C6.98505 20.6659 6.45588 20.503 6.10317 20.3661C5.6365 20.1849 5.30316 19.9682 4.95316 19.6182C4.60315 19.2682 4.38649 18.9357 4.20482 18.4689C4.06794 18.1168 3.90481 17.5876 3.86044 16.6126C3.81252 15.5584 3.80294 15.2418 3.80294 12.5714C3.80294 9.90094 3.81252 9.58594 3.86044 8.53177C3.90502 7.55677 4.06794 7.02761 4.20482 6.67511C4.38607 6.20844 4.60315 5.87511 4.95316 5.52511C5.30316 5.17511 5.6365 4.95844 6.10317 4.77677C6.45567 4.63927 6.98505 4.47677 7.96006 4.43198C8.88257 4.39032 9.24008 4.37782 11.1038 4.37573V4.37823ZM17.3389 6.03867C16.6764 6.03867 16.1389 6.57554 16.1389 7.23825C16.1389 7.90075 16.6764 8.43825 17.3389 8.43825C18.0014 8.43825 18.5389 7.90075 18.5389 7.23825C18.5389 6.57575 18.0014 6.03867 17.3389 6.03867ZM12.0009 7.44076C9.16488 7.44076 6.86548 9.74013 6.86548 12.5762C6.86548 15.4122 9.16488 17.7105 12.0009 17.7105C14.837 17.7105 17.1356 15.4122 17.1356 12.5762C17.1356 9.74013 14.837 7.44076 12.0009 7.44076ZM12.0009 9.24284C13.8418 9.24284 15.3343 10.7351 15.3343 12.5762C15.3343 14.417 13.8418 15.9095 12.0009 15.9095C10.1599 15.9095 8.66756 14.417 8.66756 12.5762C8.66756 10.7351 10.1599 9.24284 12.0009 9.24284Z" />
</svg>