<svg width="20" height="21" viewBox="0 0 20 21" xmlns="http://www.w3.org/2000/svg">
    <path
        d="M5 3.57617C5 4.63817 4.29 5.55217 2.999 5.55217C1.784 5.55217 1 4.69017 1 3.62817C1 2.53817 1.76 1.57617 3 1.57617C4.24 1.57617 4.976 2.48617 5 3.57617ZM1 19.5762V6.57617H5V19.5762H1ZM7 11.0202C7 9.47517 6.949 8.18417 6.898 7.06917H10.492L10.67 8.79217H10.746C11.252 7.98117 12.492 6.79217 14.568 6.79217C17.1 6.79217 19 8.48717 19 12.1342V19.5762H15V12.7152C15 11.1212 14.393 9.90517 13 9.90517C11.938 9.90517 11.406 10.7652 11.127 11.4742C11.025 11.7282 11 12.0822 11 12.4372V19.5762H7V11.0202Z" />
</svg>