<svg width="24" height="25" viewBox="0 0 24 25" xmlns="http://www.w3.org/2000/svg">
    <path fill-rule="evenodd" clip-rule="evenodd"
        d="M2.70287 12.0519C8.07048 9.61346 11.6438 7.99319 13.4381 7.20711C18.545 4.97723 19.6185 4.59221 20.3086 4.57617C20.462 4.57617 20.7994 4.60826 21.0294 4.80076C21.2134 4.96119 21.2594 5.16974 21.2901 5.33016C21.3208 5.49059 21.3515 5.82747 21.3208 6.08415C21.0447 9.13219 19.8485 16.5277 19.2351 19.9287C18.9744 21.3725 18.4683 21.8538 17.9775 21.9019C16.904 21.9981 16.0912 21.1639 15.0637 20.4581C13.4381 19.3512 12.5333 18.6613 10.9536 17.5705C9.12866 16.3192 10.3095 15.6293 11.3524 14.5064C11.6284 14.2176 16.3366 9.72576 16.4286 9.3247C16.4439 9.27657 16.4439 9.08407 16.3366 8.98781C16.2292 8.89156 16.0759 8.92364 15.9532 8.95573C15.7845 8.98781 13.208 10.7846 8.19316 14.3299C7.45703 14.8593 6.79759 15.116 6.19948 15.0999C5.54003 15.0839 4.28248 14.7149 3.33165 14.3941C2.18145 14.0091 1.26128 13.8005 1.33796 13.1267C1.38397 12.7738 1.84405 12.4209 2.70287 12.0519Z" />
</svg>