<svg width="24" height="25" viewBox="0 0 24 25" xmlns="http://www.w3.org/2000/svg">
    <path
        d="M12.9602 19.2297C5.66683 19.2297 1.50683 14.2297 1.3335 5.90967H4.98683C5.10683 12.0163 7.80016 14.603 9.9335 15.1363V5.90967H13.3735V11.1763C15.4802 10.9497 17.6935 8.54967 18.4402 5.90967H21.8802C21.5988 7.27885 21.0379 8.57524 20.2327 9.71776C19.4274 10.8603 18.395 11.8244 17.2002 12.5497C18.5339 13.2124 19.712 14.1505 20.6566 15.3019C21.6012 16.4534 22.2909 17.7921 22.6802 19.2297H18.8935C18.5441 17.981 17.8339 16.8633 16.8519 16.0165C15.87 15.1698 14.66 14.6317 13.3735 14.4697V19.2297H12.9602V19.2297Z" />
</svg>