<svg width="163" height="23" viewBox="0 0 163 23" fill="none" xmlns="http://www.w3.org/2000/svg">
<path d="M8.512 0.751999H11.68L10.176 6.32H14.24L15.744 0.751999H18.88L17.408 6.32H21.312V9.328H16.608L15.488 13.424H19.424V16.432H14.688L13.216 22H10.08L11.552 16.432H7.488L6.016 22H2.848L4.32 16.432H0.48V13.424H5.12L6.24 9.328H2.336V6.32H7.04L8.512 0.751999ZM9.376 9.328L8.288 13.424H12.352L13.44 9.328H9.376ZM46.0605 3.984H34.9245V9.744H45.8365V12.976H34.9245V22H31.4045V0.751999H46.0605V3.984ZM53.5495 0.751999V22H50.0295V0.751999H53.5495ZM74.3963 0.751999H77.9163V22H74.0443L62.2683 5.968V22H58.7483V0.751999H62.6203L74.3963 16.784V0.751999ZM81.268 0.751999H99.06V3.984H91.924V22H88.404V3.984H81.268V0.751999ZM117.061 3.984H105.925V9.744H116.837V12.976H105.925V18.768H117.061V22H102.405V0.751999H117.061V3.984ZM131.195 3.568C129.062 3.568 127.291 4.31467 125.883 5.808C124.475 7.28 123.771 9.136 123.771 11.376C123.771 13.616 124.475 15.4827 125.883 16.976C127.291 18.448 129.062 19.184 131.195 19.184C133.52 19.184 135.376 18.2667 136.763 16.432H140.635C139.76 18.288 138.512 19.7493 136.891 20.816C135.27 21.8827 133.371 22.416 131.195 22.416C128.08 22.416 125.478 21.3707 123.387 19.28C121.296 17.168 120.251 14.5333 120.251 11.376C120.251 8.21867 121.296 5.59467 123.387 3.504C125.478 1.392 128.08 0.335999 131.195 0.335999C133.35 0.335999 135.238 0.879999 136.859 1.968C138.502 3.03467 139.76 4.496 140.635 6.352H136.763C135.376 4.496 133.52 3.568 131.195 3.568ZM162.868 22H159.348V12.976H147.956V22H144.436V0.751999H147.956V9.744H159.348V0.751999H162.868V22Z" fill="url(#paint0_linear_1057_444)"/>
<defs>
<linearGradient id="paint0_linear_1057_444" x1="7.72832" y1="-7.54286" x2="158.326" y2="18.7642" gradientUnits="userSpaceOnUse">
<stop stop-color="#6A1AB9"/>
<stop offset="1" stop-color="#EB885A"/>
</linearGradient>
</defs>
</svg>
