<svg width="88" height="29" viewBox="0 0 88 29" fill="none" xmlns="http://www.w3.org/2000/svg">
    <g clip-path="url(#clip0_1057_716)">
        <path fill-rule="evenodd" clip-rule="evenodd"
            d="M47.3162 7.90415C47.5278 8.12559 49.4327 13.4009 49.6319 14.0522C49.8303 14.7499 50.1105 15.4193 50.4661 16.0451C51.126 16.2014 51.1883 15.511 51.3875 14.964C52.4707 12.0072 54.1141 7.69575 54.9358 4.79107C55.5086 3.38432 55.5584 3.00658 54.525 3.00658C53.4916 3.00658 53.6036 3.70995 53.1928 4.62174C52.8317 6.35412 51.4373 10.0143 50.9268 11.6946C50.9268 11.916 50.9268 11.916 50.6653 11.916C49.8062 9.41511 48.8102 6.35412 47.8391 3.87929C47.5776 3.39734 47.1169 3.29314 46.8057 4.37425C46.2828 6.09361 45.5606 8.13861 45.0004 9.80587C45.0004 9.80587 44.328 11.916 44.2782 12.0202C43.9222 11.4213 43.6615 10.7658 43.5063 10.0794C42.7344 8.08651 42.0621 5.93731 41.4022 3.94441C41.2403 3.56667 41.2403 3.34524 40.8793 3.12381C40.5173 2.9835 40.126 2.94751 39.7463 3.0196C38.7253 3.18894 39.3852 4.04862 39.5969 4.68686C40.8419 8.19071 42.2239 12.3979 43.6059 15.7325C43.6383 15.8151 43.6909 15.8873 43.7584 15.9419C43.8259 15.9965 43.906 16.0315 43.9906 16.0434C44.0752 16.0553 44.1613 16.0436 44.2402 16.0096C44.3191 15.9756 44.388 15.9204 44.4401 15.8497C44.6393 15.4459 47.1667 7.90415 47.3162 7.90415Z"
            fill="white" />
        <path fill-rule="evenodd" clip-rule="evenodd"
            d="M0.202962 3.22811C0.151496 3.44509 0.168978 3.67371 0.252764 3.87938C0.464422 4.79116 -0.158102 15.1855 0.00375449 15.6023C0.507718 15.8394 1.07275 15.8944 1.60987 15.7586C1.85888 15.4851 1.75927 15.2246 1.75927 14.7947C1.75927 12.9581 1.90868 11.1867 1.90868 9.29797C1.97093 8.5946 2.02073 8.11266 2.02073 7.68282C2.02073 7.25297 2.02073 7.30508 2.12034 7.20087C2.21994 7.09667 3.85095 10.0665 4.01281 10.3921C4.32407 11.0304 4.93414 12.0073 5.34501 12.7627C5.96754 13.9481 6.2788 13.1405 6.4282 12.8669C6.78927 12.385 9.57817 7.266 9.77738 7.1618C9.96414 7.3702 9.96414 12.4892 9.96414 12.8669C9.96414 15.6674 9.65288 15.941 11.3461 15.8237C11.8691 15.8237 11.9189 15.3939 11.8691 14.9119C11.8691 14.0002 11.8691 12.9712 11.8691 12.0594C11.7321 9.74084 11.6325 7.09667 11.6325 4.79116C11.6325 4.51763 11.7321 3.48862 11.7321 3.33231C11.5797 3.15262 11.3732 3.03273 11.1468 2.99246C10.9204 2.9522 10.6877 2.99397 10.4871 3.11088C10.126 3.33231 10.0264 3.81425 9.76493 4.13989C8.71909 6.08068 7.31219 8.28199 6.3286 10.1186C5.96754 10.7698 5.96754 10.5484 5.65627 10.1186C4.98395 9.08956 4.11241 7.3181 3.50234 6.28909L2.25729 4.13989C2.08423 3.7664 1.86212 3.42005 1.59742 3.11088C1.2488 2.85037 0.564026 3.05878 0.202962 3.22811Z"
            fill="white" />
        <path fill-rule="evenodd" clip-rule="evenodd"
            d="M65.9022 9.25952C66.3429 8.88335 66.8656 8.62704 67.4239 8.51341C67.9822 8.39978 68.5587 8.43236 69.102 8.60825C70.7455 9.36372 70.9571 11.9037 70.235 13.1411C69.9274 13.6234 69.4844 13.9939 68.967 14.2015C68.4496 14.4092 67.8834 14.4437 67.3465 14.3004C66.8263 14.193 66.334 13.971 65.9022 13.6491V9.25952ZM65.9022 7.42293C65.8246 6.00432 65.8246 4.58222 65.9022 3.1636C65.9022 2.57746 65.703 2.47325 65.1801 2.68166C63.935 3.22873 63.935 3.0073 64.1093 4.19262C64.2089 4.79179 64.1093 11.7344 64.1093 12.7113C64.1093 14.639 63.8479 15.0819 66.5247 15.8895C67.287 16.0567 68.0736 16.061 68.8375 15.9021C69.6013 15.7432 70.3265 15.4243 70.9696 14.9647C73.5966 12.7113 72.8745 6.35484 68.0811 6.83678C67.6632 6.86044 67.2473 6.91265 66.836 6.99309C66.6741 7.04519 66.0641 7.42293 65.9894 7.42293H65.9022Z"
            fill="white" />
        <path fill-rule="evenodd" clip-rule="evenodd"
            d="M29.5957 15.7197C29.7904 15.0404 29.8455 14.3257 29.7575 13.6226C29.7066 12.8854 29.7066 12.1454 29.7575 11.4082C29.9069 11.4082 30.0688 11.6818 30.38 12.0074C30.6913 12.333 33.2561 15.1335 33.667 15.4461C33.8103 15.5857 33.9831 15.6879 34.1713 15.7445C34.3595 15.8011 34.5579 15.8104 34.7502 15.7718C35.1112 15.7718 35.684 15.7718 35.8832 15.5113C35.8832 15.1335 35.161 14.5343 34.8498 14.2087C34.5385 13.8831 34.1401 13.4663 33.779 13.0234C32.9871 12.2943 32.2465 11.5063 31.5628 10.6658C31.5628 10.5486 34.3891 8.06069 34.912 7.59178C35.1112 7.37035 35.3229 7.31824 35.2731 6.99261C34.6323 6.78579 33.9467 6.78579 33.3059 6.99261C33.0569 7.10984 31.3512 8.72499 30.8905 9.15483C30.7411 9.31114 29.8571 10.288 29.7575 10.2359C29.6081 9.74098 29.7575 3.00682 29.6579 2.62908C29.5583 2.25134 27.8028 2.85051 27.8526 3.50178C27.9502 3.95938 28.0003 4.42666 28.002 4.89551V14.2087C28.002 14.5343 27.9024 15.5113 28.1141 15.6676C28.5985 15.7971 29.104 15.8149 29.5957 15.7197Z"
            fill="white" />
        <path fill-rule="evenodd" clip-rule="evenodd"
            d="M16.186 11.304C16.7587 11.1477 18.6761 11.6296 18.7632 12.1636C18.813 12.7399 18.813 13.3197 18.7632 13.896C18.4021 14.378 15.9245 15.3419 15.1028 13.6225C14.992 13.3782 14.9346 13.1113 14.9346 12.841C14.9346 12.5706 14.992 12.3037 15.1028 12.0594C15.2223 11.8608 15.3806 11.6909 15.5673 11.5607C15.7539 11.4305 15.9648 11.343 16.186 11.304ZM18.813 10.6527C18.3292 10.3174 17.7881 10.083 17.2193 9.96234C16.5106 9.88024 15.7935 9.93319 15.1028 10.1186C14.5212 10.2929 14.0084 10.6578 13.6398 11.1597C13.2713 11.6615 13.0663 12.2739 13.0552 12.9066C13.044 13.5394 13.2272 14.1593 13.5779 14.675C13.9285 15.1907 14.4281 15.5751 15.0032 15.7717C15.988 16.123 17.0563 16.123 18.0411 15.7717C18.2527 15.6675 18.6636 15.394 18.813 15.3419C18.9624 15.2898 19.0247 15.7196 19.2239 15.8238C19.4231 15.928 20.3569 15.8238 20.6183 15.5633C20.8798 15.3028 20.9296 15.3419 20.7677 14.9641C20.5268 14.4657 20.4398 13.9013 20.5187 13.349V9.46737C20.5839 8.91777 20.4555 8.36215 20.1577 7.90432C19.1741 5.85932 13.2476 6.6669 13.7208 8.39929C14.1939 10.1317 14.9658 7.80012 17.5804 8.12575C18.9873 8.28206 18.8379 9.68881 18.8379 10.6527H18.813Z"
            fill="white" />
        <path fill-rule="evenodd" clip-rule="evenodd"
            d="M79.7601 10.3925H75.4896C75.5469 9.85771 75.7802 9.36037 76.1495 8.98579C76.5527 8.6159 77.0592 8.39205 77.5938 8.34754C77.8722 8.32348 78.1524 8.35837 78.4177 8.45012C78.6829 8.54188 78.9278 8.68862 79.1376 8.88158C79.3489 9.06341 79.5156 9.29537 79.6238 9.55817C79.7321 9.82097 79.7788 10.107 79.7601 10.3925ZM75.3776 11.7863C75.6888 11.63 80.3578 11.7863 81.2044 11.7863C82.051 11.7863 81.6651 8.88158 80.1212 7.69627C79.4905 7.20433 78.7396 6.90904 77.9553 6.84449C77.171 6.77995 76.3853 6.94878 75.6888 7.3315C74.9923 7.71421 74.4135 8.29521 74.0191 9.0074C73.6248 9.71959 73.431 10.5339 73.4602 11.3564C73.4306 12.1553 73.6083 12.9476 73.9744 13.6493C74.3405 14.3511 74.8813 14.936 75.5394 15.3422C76.9214 16.3191 80.6317 16.267 81.0923 14.7561C81.6651 12.8153 80.3204 13.8964 79.8473 14.1048C79.4494 14.2754 79.0301 14.3851 78.6022 14.4304C75.8507 14.7561 75.1784 12.2161 75.3776 11.7863Z"
            fill="white" />
        <path fill-rule="evenodd" clip-rule="evenodd"
            d="M56.6887 10.3914C56.7324 9.83502 56.9742 9.31612 57.3661 8.9374C57.7581 8.55868 58.2717 8.34775 58.8053 8.34635C59.876 8.22913 61.1211 9.20604 60.9094 10.3914H56.6887ZM56.4771 11.6939C56.7385 11.6939 61.5818 11.6939 62.2541 11.6939C62.9264 11.6939 62.8144 11.2641 62.7646 10.73C62.7282 10.0068 62.5129 9.30583 62.1397 8.69583C61.7665 8.08583 61.2483 7.5877 60.6358 7.25023C60.0232 6.91275 59.3374 6.74752 58.6455 6.7707C57.9536 6.79388 57.2793 7.00469 56.6887 7.38247C56.0246 7.79294 55.4815 8.38699 55.1191 9.09934C54.7566 9.8117 54.5889 10.6148 54.6344 11.4204C54.5815 12.2156 54.7527 13.0096 55.1267 13.7041C55.5007 14.3986 56.061 14.9632 56.7385 15.328C58.494 16.4612 61.9428 15.9793 62.2541 14.6898C62.2541 14.312 62.5031 13.3872 61.9428 13.6086C61.266 14.0089 60.5293 14.2864 59.764 14.4292C59.356 14.4863 58.9412 14.4581 58.5437 14.3463C58.1462 14.2345 57.7739 14.0413 57.4482 13.778C57 13.4002 56.2778 12.267 56.4771 11.6939Z"
            fill="white" />
        <path fill-rule="evenodd" clip-rule="evenodd"
            d="M84.4407 15.7714C84.752 15.4458 84.7022 15.2895 84.7022 14.8075V13.505C84.7022 11.7856 84.3909 8.93304 86.2959 8.5032C86.7067 8.39899 86.8063 8.76371 87.3292 8.6595C87.6376 8.37006 87.8692 8.00212 88.0016 7.59141C88.0016 6.77081 86.7565 6.6145 85.6235 7.14855C85.2625 7.31788 84.9637 7.90403 84.7022 7.95613C84.7022 7.47419 84.8018 7.26578 84.4905 6.83594C84.0915 6.87597 83.7052 7.00476 83.3575 7.21368C82.8471 7.47418 82.7475 7.47419 82.8471 8.12546C82.9467 8.77673 82.8471 13.2445 82.8471 14.3126C82.8969 15.9407 82.8969 15.8886 84.4407 15.7714Z"
            fill="white" />
        <path fill-rule="evenodd" clip-rule="evenodd"
            d="M23.7348 15.7193V15.6151C23.8793 14.2921 23.9168 12.9588 23.8468 11.6293C23.8468 10.6003 24.0958 8.93301 25.179 8.60737C26.0506 8.28174 26.1004 9.14142 26.6731 8.60737C28.0053 7.14852 26.2124 6.56238 25.1292 7.04432C24.046 7.52626 24.1954 7.904 23.8842 8.0082C23.8592 7.79626 23.8592 7.5819 23.8842 7.36996C23.8842 7.09642 23.7721 7.09642 23.6725 6.94011C23.2733 6.93672 22.8811 7.04946 22.5395 7.26575C22.0291 7.47416 21.8672 7.52626 22.0291 8.17753C22.1386 9.17614 22.1719 10.1823 22.1287 11.1864V14.1562C22.2407 15.7714 22.0291 15.8886 23.7348 15.7193Z"
            fill="white" />
        <path fill-rule="evenodd" clip-rule="evenodd"
            d="M46.9551 17.4518C44.8998 17.7171 42.8788 18.2194 40.9291 18.9497C40.319 19.2232 39.6841 19.3795 39.074 19.6531C37.8289 20.135 36.6586 20.5649 35.426 21.0598C35.0151 21.2161 32.0768 22.1279 31.5663 22.2452C29.0762 22.8834 25.3411 23.6389 22.9631 22.5057C21.8301 21.9195 21.718 23.7431 24.2953 24.3944C25.8024 24.6705 27.349 24.5994 28.8272 24.1859C30.0723 23.9124 31.5663 23.4305 32.7491 23.0527C33.9319 22.675 35.3264 22.2452 36.6088 21.8674C36.92 21.7502 37.1691 21.646 37.5301 21.5418L39.435 20.9426C39.7961 20.8384 40.0576 20.6821 40.3688 20.5649L42.336 20.0829C42.6971 19.9787 42.9585 19.8745 43.2698 19.7573C45.8766 19.1755 48.5353 18.8873 51.2007 18.8976C51.8606 18.8976 52.8442 19.0669 53.5165 19.1711C54.7616 19.3274 54.4877 18.6371 53.6659 18.1942C51.5294 17.3378 49.2157 17.0818 46.9551 17.4518Z"
            fill="#FABD7C" />
    </g>
    <defs>
        <clipPath id="clip0_1057_716">
            <rect width="88" height="28" fill="white" transform="translate(0 0.576172)" />
        </clipPath>
    </defs>
</svg>