<svg width="26" height="26" viewBox="0 0 26 26" fill="none" xmlns="http://www.w3.org/2000/svg">
<path fill-rule="evenodd" clip-rule="evenodd" d="M13.002 1.5C6.65068 1.5 1.50195 6.64873 1.50195 13C1.50195 19.3513 6.65068 24.5 13.002 24.5C19.3532 24.5 24.502 19.3513 24.502 13C24.502 6.64873 19.3532 1.5 13.002 1.5ZM0.501953 13C0.501953 6.09644 6.09839 0.5 13.002 0.5C19.9055 0.5 25.502 6.09644 25.502 13C25.502 19.9036 19.9055 25.5 13.002 25.5C6.09839 25.5 0.501953 19.9036 0.501953 13ZM19.3555 10.3536L12.002 17.7071L7.6484 13.3536L8.35551 12.6464L12.002 16.2929L18.6484 9.64645L19.3555 10.3536Z" fill="url(#paint0_linear_2202_463)"/>
<defs>
<linearGradient id="paint0_linear_2202_463" x1="1.66586" y1="2.03571" x2="24.9969" y2="3.01778" gradientUnits="userSpaceOnUse">
<stop stop-color="#6A1AB9"/>
<stop offset="1" stop-color="#EB885A"/>
</linearGradient>
</defs>
</svg>
