<svg width="191" height="74" viewBox="0 0 191 74" fill="none" xmlns="http://www.w3.org/2000/svg">
<g clip-path="url(#clip0_1057_4007)">
<mask id="mask0_1057_4007" style="mask-type:luminance" maskUnits="userSpaceOnUse" x="0" y="0" width="191" height="74">
<path d="M0 0H191V74H0V0Z" fill="white"/>
</mask>
<g mask="url(#mask0_1057_4007)">
<path d="M26.7155 46.1264C28.7495 46.1264 30.4018 44.4716 30.4018 42.4339V39.3346C30.4018 38.9617 30.7027 38.6603 31.075 38.6603H46.9373C47.3096 38.6603 47.6105 38.9617 47.6105 39.3346V42.4386C47.6105 53.9942 38.2566 63.3637 26.7202 63.3637C15.1841 63.3637 5.83019 53.9942 5.83019 42.4386V34.834C5.83028 34.7454 5.81293 34.6577 5.77914 34.5758C5.74534 34.4939 5.69576 34.4196 5.63323 34.3569C5.5707 34.2943 5.49645 34.2446 5.41473 34.2108C5.33301 34.1769 5.24543 34.1596 5.157 34.1597H0.673185C0.584755 34.1597 0.497174 34.1424 0.415456 34.1085C0.333739 34.0747 0.25949 34.025 0.19696 33.9624C0.13443 33.8997 0.0848475 33.8254 0.0510504 33.7435C0.0172533 33.6617 -9.44451e-05 33.5739 3.86706e-07 33.4854V21.3082C3.86706e-07 20.9353 0.300916 20.6339 0.673185 20.6339H5.15196C5.24042 20.634 5.32804 20.6167 5.40979 20.5829C5.49155 20.549 5.56585 20.4994 5.62841 20.4367C5.69098 20.3741 5.7406 20.2997 5.77442 20.2178C5.80824 20.136 5.8256 20.0482 5.8255 19.9596V12.2593C5.8255 11.886 6.12606 11.585 6.49869 11.585H22.356C22.7286 11.585 23.0292 11.886 23.0292 12.2593V19.9596C23.0292 20.3325 23.3301 20.6339 23.7027 20.6339H43.0028C43.375 20.6339 43.6759 20.9353 43.6759 21.3082V33.4803C43.6761 33.5689 43.6588 33.6567 43.625 33.7386C43.5912 33.8205 43.5416 33.8949 43.4791 33.9575C43.4166 34.0202 43.3423 34.0699 43.2606 34.1038C43.1788 34.1377 43.0912 34.1551 43.0028 34.155H23.7027C23.6143 34.1548 23.5267 34.1722 23.4449 34.206C23.3631 34.2398 23.2889 34.2895 23.2263 34.3521C23.1637 34.4148 23.1141 34.4891 23.0803 34.571C23.0465 34.6529 23.0291 34.7407 23.0292 34.8293V42.4339C23.0292 44.4716 24.6812 46.1264 26.7155 46.1264ZM71.2747 46.1264C73.309 46.1264 74.961 44.4716 74.961 42.4339V21.3082C74.961 20.9353 75.2619 20.6339 75.6342 20.6339H91.8213C92.2033 20.6339 92.5089 20.9591 92.4898 21.3418L92.1651 42.4339C92.1651 53.9891 82.8111 63.359 71.2747 63.359C59.7387 63.359 50.3847 53.9891 50.3847 42.4339V21.3082C50.3847 20.9353 50.6856 20.6339 51.0579 20.6339H66.9152C67.2879 20.6339 67.5884 20.9353 67.5884 21.3082V42.4339C67.5884 44.4716 69.2407 46.1264 71.2747 46.1264Z" fill="#0D0B68"/>
<path d="M117.978 34.485L115.958 42.6925C115.505 44.3616 116.703 46.0738 118.432 46.1218C119.556 46.1532 120.657 45.8052 121.56 45.1337C122.462 44.4622 123.113 43.5063 123.407 42.4196L124.295 39.1484C124.334 39.0057 124.419 38.8798 124.536 38.7899C124.654 38.7 124.797 38.6512 124.945 38.651H140.755C140.858 38.651 140.96 38.675 141.053 38.7209C141.146 38.7668 141.226 38.8335 141.289 38.9159C141.352 38.9982 141.395 39.0939 141.415 39.1956C141.435 39.2973 141.431 39.4022 141.404 39.5022L139.465 46.6286C136.777 56.5005 127.824 63.354 117.606 63.354C105.282 63.354 96.3291 51.6173 99.571 39.7033L100.684 34.8391C100.71 34.7391 100.714 34.6343 100.694 34.5327C100.674 34.4311 100.631 34.3355 100.568 34.2533C100.505 34.171 100.425 34.1042 100.332 34.0582C100.239 34.0121 100.137 33.9879 100.034 33.9876H95.7179C95.6144 33.9875 95.5124 33.9636 95.4197 33.9177C95.3269 33.8718 95.246 33.805 95.1832 33.7227C95.1204 33.6404 95.0774 33.5447 95.0575 33.443C95.0376 33.3413 95.0414 33.2364 95.0685 33.1364L98.3822 20.9592C98.4211 20.8166 98.5058 20.6906 98.6231 20.6008C98.7404 20.5109 98.8839 20.4621 99.0316 20.4618H104.079C104.226 20.4616 104.37 20.4129 104.487 20.323C104.605 20.2331 104.689 20.1071 104.728 19.9644L107.163 11.8959C107.202 11.7532 107.287 11.6273 107.404 11.5374C107.521 11.4475 107.665 11.3987 107.813 11.3984H123.622C123.726 11.3985 123.828 11.4224 123.92 11.4683C124.013 11.5143 124.094 11.581 124.157 11.6633C124.22 11.7456 124.263 11.8414 124.283 11.943C124.303 12.0447 124.299 12.1496 124.272 12.2496L122.027 19.6106C122 19.7106 121.997 19.8154 122.017 19.9169C122.037 20.0184 122.08 20.114 122.143 20.1962C122.206 20.2785 122.286 20.3452 122.379 20.3912C122.471 20.4373 122.573 20.4614 122.677 20.4618H141.91C142.013 20.4618 142.115 20.4858 142.208 20.5317C142.301 20.5776 142.382 20.6444 142.445 20.7267C142.507 20.809 142.55 20.9047 142.57 21.0064C142.59 21.1081 142.587 21.213 142.559 21.313L139.246 33.4901C139.207 33.6328 139.122 33.7588 139.005 33.8486C138.887 33.9385 138.744 33.9873 138.596 33.9876H118.632C118.322 33.9923 118.059 34.1933 117.978 34.485ZM173.864 21.0358L167.981 42.6683C167.711 43.6614 167.123 44.5381 166.307 45.163C165.49 45.788 164.491 46.1265 163.464 46.1265C161.554 46.1265 160.165 44.3043 160.666 42.4579L166.401 21.3895C166.427 21.2896 166.431 21.1848 166.411 21.0832C166.391 20.9817 166.348 20.8861 166.285 20.8039C166.222 20.7217 166.141 20.655 166.049 20.6089C165.956 20.5629 165.854 20.5387 165.751 20.5383H149.941C149.64 20.5383 149.373 20.7394 149.292 21.0358L143.992 40.5209C140.864 52.019 149.507 63.354 161.406 63.354C172.121 63.354 181.513 56.1702 184.33 45.8106L190.977 21.3848C191.004 21.2849 191.007 21.1801 190.987 21.0785C190.967 20.977 190.924 20.8815 190.861 20.7992C190.798 20.717 190.718 20.6503 190.625 20.6042C190.533 20.5582 190.431 20.534 190.327 20.5336H174.518C174.212 20.543 173.945 20.7441 173.864 21.0358Z" fill="#7D71FF"/>
</g>
</g>
<defs>
<clipPath id="clip0_1057_4007">
<rect width="191" height="74" fill="white"/>
</clipPath>
</defs>
</svg>
