<svg width="95" height="95" viewBox="0 0 95 95" fill="none" xmlns="http://www.w3.org/2000/svg">
<rect x="94.5" y="94.4766" width="93.9764" height="93.9764" rx="46.9882" transform="rotate(-180 94.5 94.4766)" fill="#F7F6F7"/>
<rect x="94.5" y="94.4766" width="93.9764" height="93.9764" rx="46.9882" transform="rotate(-180 94.5 94.4766)" stroke="url(#paint0_linear_1057_237)"/>
<path opacity="0.0714286" d="M59.6686 79.9602C59.4711 80.0321 59.1623 80.0145 58.6883 79.7427C58.2192 79.4736 57.6629 78.9957 57.0308 78.299C55.77 76.9092 54.2895 74.7409 52.6856 71.9403C49.4818 66.3462 45.8333 58.3142 42.5059 49.1722C39.1785 40.0302 36.8106 31.5321 35.669 25.1875C35.0974 22.0111 34.8378 19.3985 34.9103 17.5234C34.9466 16.5834 35.0656 15.8597 35.252 15.3521C35.4404 14.8392 35.6657 14.6272 35.8631 14.5553C36.0606 14.4834 36.3694 14.501 36.8434 14.7729C37.3125 15.0419 37.8688 15.5198 38.5009 16.2165C39.7617 17.6063 41.2422 19.7746 42.8461 22.5752C46.0498 28.1693 49.6984 36.2013 53.0258 45.3433C56.3532 54.4853 58.7211 62.9834 59.8627 69.328C60.4342 72.5044 60.6939 75.117 60.6214 76.9921C60.5851 77.9321 60.4661 78.6558 60.2797 79.1634C60.0913 79.6763 59.866 79.8883 59.6686 79.9602Z" stroke="url(#paint1_linear_1057_237)"/>
<path opacity="0.142857" d="M31.1673 76.0065C30.9771 75.8967 30.7902 75.6487 30.6854 75.1327C30.5811 74.6196 30.575 73.9146 30.6824 73.0191C30.8966 71.2323 31.5471 68.8078 32.5888 65.9054C34.6693 60.1085 38.2758 52.4994 42.9181 44.4587C47.5604 36.4179 52.3469 29.4901 56.3268 24.7899C58.3195 22.4366 60.094 20.661 61.5343 19.582C62.2561 19.0413 62.8698 18.6941 63.3662 18.5279C63.8655 18.3607 64.1737 18.3985 64.364 18.5083C64.5542 18.6181 64.741 18.8662 64.8459 19.3822C64.9501 19.8952 64.9563 20.6002 64.8489 21.4957C64.6347 23.2826 63.9842 25.7071 62.9425 28.6094C60.862 34.4063 57.2555 42.0154 52.6132 50.0562C47.9709 58.0969 43.1844 65.0248 39.2044 69.725C37.2118 72.0783 35.4373 73.8538 33.997 74.9328C33.2752 75.4736 32.6615 75.8207 32.1651 75.987C31.6658 76.1542 31.3576 76.1164 31.1673 76.0065Z" stroke="url(#paint2_linear_1057_237)"/>
<path opacity="0.214286" d="M16.6504 52.7432C16.6106 52.5174 16.6791 52.213 16.9854 51.8084C17.2912 51.4044 17.7963 50.9535 18.5105 50.4683C19.9359 49.5 22.0941 48.4613 24.8433 47.4193C30.3337 45.3383 38.0843 43.28 46.7905 41.7449C55.4967 40.2097 63.4838 39.493 69.3549 39.5707C72.2946 39.6096 74.678 39.8475 76.3486 40.2699C77.1856 40.4816 77.8145 40.7325 78.2401 41.0076C78.6663 41.283 78.8347 41.5456 78.8746 41.7714C78.9144 41.9973 78.8459 42.3016 78.5396 42.7062C78.2338 43.1103 77.7287 43.5611 77.0145 44.0463C75.5891 45.0146 73.4309 46.0534 70.6817 47.0953C65.1913 49.1764 57.4407 51.2346 48.7345 52.7698C40.0283 54.3049 32.0412 55.0216 26.1701 54.9439C23.2303 54.9051 20.847 54.6671 19.1764 54.2447C18.3393 54.0331 17.7105 53.7822 17.2849 53.5071C16.8587 53.2316 16.6903 52.9691 16.6504 52.7432Z" stroke="url(#paint3_linear_1057_237)"/>
<path opacity="0.285714" d="M24.7922 27.982C24.9459 27.7988 25.2235 27.653 25.7114 27.6159C26.2005 27.5788 26.8453 27.6569 27.6433 27.8661C29.2366 28.2839 31.3278 29.1936 33.781 30.5361C38.68 33.2171 44.93 37.5726 51.3619 42.9696C57.7938 48.3666 63.1684 53.7654 66.6593 58.1243C68.4074 60.3071 69.6665 62.2086 70.3546 63.7052C70.6992 64.4547 70.8881 65.0761 70.9364 65.5642C70.9847 66.0511 70.8893 66.3499 70.7356 66.5331C70.5819 66.7162 70.3042 66.862 69.8164 66.8991C69.3273 66.9363 68.6825 66.8582 67.8845 66.6489C66.2912 66.2311 64.1999 65.3214 61.7468 63.9789C56.8478 61.2979 50.5978 56.9424 44.1659 51.5454C37.734 46.1484 32.3594 40.7497 28.8685 36.3907C27.1203 34.2079 25.8613 32.3065 25.1732 30.8099C24.8285 30.0603 24.6397 29.4389 24.5913 28.9508C24.5431 28.4639 24.6385 28.1651 24.7922 27.982Z" stroke="url(#paint4_linear_1057_237)"/>
<path opacity="0.357143" d="M47.7615 18.875C48.0105 18.875 48.3034 18.9922 48.6424 19.3208C48.9833 19.6512 49.3362 20.164 49.6876 20.868C50.3895 22.2744 51.0359 24.3419 51.5839 26.9379C52.6782 32.1215 53.359 39.306 53.359 47.2578C53.359 55.2096 52.6782 62.3941 51.5839 67.5778C51.0359 70.1737 50.3895 72.2412 49.6876 73.6476C49.3362 74.3516 48.9833 74.8644 48.6424 75.1948C48.3034 75.5234 48.0105 75.6406 47.7615 75.6406C47.5126 75.6406 47.2197 75.5234 46.8807 75.1948C46.5398 74.8644 46.1869 74.3516 45.8355 73.6476C45.1336 72.2412 44.4872 70.1737 43.9392 67.5778C42.8449 62.3941 42.1641 55.2096 42.1641 47.2578C42.1641 39.306 42.8449 32.1215 43.9392 26.9379C44.4872 24.3419 45.1336 22.2744 45.8355 20.868C46.1869 20.164 46.5398 19.6512 46.8807 19.3208C47.2197 18.9922 47.5126 18.875 47.7615 18.875Z" stroke="url(#paint5_linear_1057_237)"/>
<path opacity="0.428571" d="M68.2743 30.0452C68.4408 30.2436 68.5428 30.5444 68.5232 30.9999C68.5033 31.4591 68.3601 32.0376 68.0777 32.7314C67.5134 34.1181 66.4357 35.8646 64.9112 37.8586C61.8672 41.84 57.1099 46.7203 51.359 51.5459C45.6081 56.3714 39.9759 60.209 35.5264 62.5154C33.298 63.6705 31.3908 64.4285 29.9273 64.7435C29.1949 64.901 28.6003 64.9417 28.1446 64.8815C27.6926 64.8217 27.4142 64.669 27.2477 64.4706C27.0813 64.2723 26.9792 63.9715 26.9989 63.516C27.0187 63.0568 27.162 62.4783 27.4444 61.7844C28.0087 60.3978 29.0864 58.6513 30.6109 56.6572C33.6549 52.6758 38.4121 47.7956 44.163 42.97C49.9139 38.1444 55.5461 34.3069 59.9956 32.0005C62.2241 30.8454 64.1312 30.0874 65.5948 29.7724C66.3271 29.6148 66.9217 29.5742 67.3774 29.6344C67.8294 29.6941 68.1079 29.8469 68.2743 30.0452Z" stroke="url(#paint6_linear_1057_237)"/>
<path opacity="0.5" d="M72.555 51.6288C72.4606 52.1639 71.8706 52.7444 70.483 53.2308C69.1399 53.7015 67.227 54.0181 64.864 54.1568C60.1461 54.4338 53.747 53.9963 46.7918 52.7699C39.8366 51.5435 33.6739 49.766 29.3352 47.8921C27.1621 46.9535 25.4729 46.0018 24.3718 45.1001C23.2342 44.1685 22.8783 43.4212 22.9726 42.8861C23.067 42.3511 23.657 41.7705 25.0447 41.2841C26.3878 40.8134 28.3006 40.4969 30.6636 40.3581C35.3816 40.0811 41.7806 40.5186 48.7358 41.745C55.691 42.9714 61.8538 44.7489 66.1925 46.6228C68.3655 47.5614 70.0548 48.5131 71.1558 49.4148C72.2935 50.3464 72.6493 51.0938 72.555 51.6288Z" stroke="url(#paint7_linear_1057_237)"/>
<path opacity="0.571429" d="M59.5463 67.6692C59.0619 67.9488 58.2503 67.8881 57.0381 67.2139C55.8581 66.5577 54.4471 65.3985 52.8959 63.8042C49.7989 60.6212 46.2229 55.7875 42.9142 50.0566C39.6054 44.3257 37.2073 38.812 35.9993 34.5384C35.3942 32.3979 35.0958 30.5963 35.1175 29.2463C35.1397 27.8594 35.4929 27.1261 35.9772 26.8465C36.4615 26.5669 37.2732 26.6276 38.4854 27.3018C39.6654 27.9581 41.0764 29.1173 42.6276 30.7116C45.7246 33.8945 49.3006 38.7282 52.6093 44.4591C55.9181 50.1901 58.3162 55.7037 59.5242 59.9773C60.1293 62.1178 60.4277 63.9194 60.406 65.2695C60.3838 66.6563 60.0306 67.3896 59.5463 67.6692Z" stroke="url(#paint8_linear_1057_237)"/>
<path opacity="0.642857" d="M40.2505 67.8974C39.7092 67.7004 39.2276 67.0605 38.9408 65.7867C38.6599 64.5396 38.6018 62.8264 38.7765 60.7517C39.1254 56.6096 40.3918 51.1431 42.5028 45.3431C44.6138 39.5431 47.1575 34.5415 49.5527 31.1443C50.7525 29.4426 51.8983 28.1676 52.915 27.3928C53.9534 26.6014 54.7338 26.4208 55.275 26.6178C55.8162 26.8148 56.2979 27.4547 56.5847 28.7284C56.8655 29.9756 56.9237 31.6888 56.749 33.7635C56.4001 37.9055 55.1337 43.372 53.0227 49.172C50.9116 54.972 48.368 59.9737 45.9727 63.3709C44.773 65.0725 43.6272 66.3475 42.6105 67.1224C41.572 67.9138 40.7917 68.0944 40.2505 67.8974Z" stroke="url(#paint9_linear_1057_237)"/>
<path opacity="0.714286" d="M28.63 54.2212C28.427 53.6635 28.587 52.8909 29.2966 51.8906C29.9955 50.9054 31.159 49.8024 32.7227 48.654C35.8445 46.3613 40.4663 43.9564 45.8475 41.9978C51.2287 40.0392 56.315 38.9107 60.1802 38.6603C62.1162 38.5349 63.7165 38.6319 64.8852 38.9374C66.0718 39.2475 66.6909 39.7366 66.8939 40.2943C67.0969 40.852 66.9369 41.6246 66.2273 42.6249C65.5284 43.6101 64.3649 44.7131 62.8012 45.8615C59.6793 48.1542 55.0576 50.5591 49.6764 52.5177C44.2952 54.4763 39.2089 55.6048 35.3437 55.8552C33.4077 55.9806 31.8074 55.8835 30.6387 55.5781C29.4521 55.2679 28.833 54.7789 28.63 54.2212Z" stroke="url(#paint10_linear_1057_237)"/>
<path opacity="0.785714" d="M31.5214 37.8797C31.8272 37.35 32.5029 36.964 33.6449 36.8273C34.776 36.692 36.2642 36.8168 38.0207 37.204C41.5276 37.9768 45.9896 39.7695 50.5626 42.4098C55.1356 45.05 58.9191 48.0178 61.342 50.6685C62.5554 51.9961 63.4076 53.2225 63.856 54.2697C64.3087 55.3271 64.3122 56.1052 64.0064 56.635C63.7005 57.1647 63.0249 57.5507 61.8828 57.6873C60.7518 57.8226 59.2635 57.6978 57.5071 57.3107C54.0001 56.5378 49.5381 54.7451 44.9651 52.1049C40.3921 49.4647 36.6086 46.4968 34.1858 43.8462C32.9723 42.5186 32.1201 41.2921 31.6717 40.245C31.219 39.1876 31.2155 38.4095 31.5214 37.8797Z" stroke="url(#paint11_linear_1057_237)"/>
<path opacity="0.857143" d="M44.7859 30.3674C45.407 30.2579 46.1348 30.5042 46.9509 31.2076C47.7632 31.9078 48.6007 33.0113 49.4058 34.4603C51.0136 37.354 52.4371 41.5251 53.2765 46.2855C54.1159 51.0458 54.2048 55.4522 53.6837 58.7213C53.4227 60.3583 53.0131 61.6818 52.4893 62.6175C51.963 63.5576 51.3633 64.038 50.7422 64.1475C50.1212 64.257 49.3933 64.0107 48.5773 63.3073C47.765 62.6072 46.9275 61.5036 46.1223 60.0546C44.5145 57.1609 43.091 52.9898 42.2516 48.2294C41.4123 43.4691 41.3233 39.0627 41.8445 35.7936C42.1055 34.1566 42.515 32.8331 43.0389 31.8974C43.5651 30.9573 44.1648 30.4769 44.7859 30.3674Z" stroke="url(#paint12_linear_1057_237)"/>
<path opacity="0.928571" d="M57.7592 35.3489C58.2572 35.7668 58.5543 36.4663 58.5884 37.4743C58.6225 38.482 58.3892 39.7399 57.8902 41.1731C56.8936 44.0361 54.8737 47.4957 52.0543 50.8558C49.2349 54.2159 46.1786 56.8058 43.5321 58.2845C42.2073 59.0247 41.0091 59.4729 40.0107 59.6143C39.0122 59.7558 38.2717 59.5847 37.7736 59.1667C37.2755 58.7488 36.9784 58.0493 36.9443 57.0413C36.9102 56.0336 37.1436 54.7758 37.6425 53.3425C38.6391 50.4795 40.659 47.0199 43.4784 43.6598C46.2979 40.2997 49.3542 37.7098 52.0006 36.2311C53.3255 35.4909 54.5237 35.0427 55.522 34.9013C56.5206 34.7598 57.2611 34.9309 57.7592 35.3489Z" stroke="url(#paint13_linear_1057_237)"/>
<path d="M61.707 47.2576C61.707 47.9278 61.3875 48.6098 60.7189 49.2772C60.0484 49.9465 59.0529 50.5723 57.7828 51.1086C55.2445 52.1803 51.7033 52.8551 47.7656 52.8551C43.828 52.8551 40.2867 52.1803 37.7485 51.1086C36.4784 50.5723 35.4829 49.9465 34.8123 49.2772C34.1438 48.6098 33.8242 47.9278 33.8242 47.2576C33.8242 46.5875 34.1438 45.9055 34.8123 45.2381C35.4829 44.5687 36.4784 43.943 37.7485 43.4067C40.2867 42.335 43.828 41.6602 47.7656 41.6602C51.7033 41.6602 55.2445 42.335 57.7828 43.4067C59.0529 43.943 60.0484 44.5687 60.7189 45.2381C61.3875 45.9055 61.707 46.5875 61.707 47.2576Z" stroke="url(#paint14_linear_1057_237)"/>
<defs>
<linearGradient id="paint0_linear_1057_237" x1="99.4217" y1="100.811" x2="188.058" y2="104.542" gradientUnits="userSpaceOnUse">
<stop stop-color="#6A1AB9"/>
<stop offset="1" stop-color="#EB885A"/>
</linearGradient>
<linearGradient id="paint1_linear_1057_237" x1="41.8421" y1="15.345" x2="48.8841" y2="79.0864" gradientUnits="userSpaceOnUse">
<stop stop-color="#6A1AB9"/>
<stop offset="1" stop-color="#EB885A"/>
</linearGradient>
<linearGradient id="paint2_linear_1057_237" x1="67.677" y1="23.4667" x2="25.7502" y2="68.2783" gradientUnits="userSpaceOnUse">
<stop stop-color="#6A1AB9"/>
<stop offset="1" stop-color="#EB885A"/>
</linearGradient>
<linearGradient id="paint3_linear_1057_237" x1="77.3529" y1="47.4706" x2="18.8234" y2="44.9238" gradientUnits="userSpaceOnUse">
<stop stop-color="#6A1AB9"/>
<stop offset="1" stop-color="#EB885A"/>
</linearGradient>
<linearGradient id="paint4_linear_1057_237" x1="65.5061" y1="69.1268" x2="31.0746" y2="25.238" gradientUnits="userSpaceOnUse">
<stop stop-color="#6A1AB9"/>
<stop offset="1" stop-color="#EB885A"/>
</linearGradient>
<linearGradient id="paint5_linear_1057_237" x1="42.4132" y1="73.4513" x2="52.7693" y2="21.5113" gradientUnits="userSpaceOnUse">
<stop stop-color="#6A1AB9"/>
<stop offset="1" stop-color="#EB885A"/>
</linearGradient>
<linearGradient id="paint6_linear_1057_237" x1="25.3725" y1="59.0623" x2="69.0686" y2="34.5056" gradientUnits="userSpaceOnUse">
<stop stop-color="#6A1AB9"/>
<stop offset="1" stop-color="#EB885A"/>
</linearGradient>
<linearGradient id="paint7_linear_1057_237" x1="25.7632" y1="37.9473" x2="70.1661" y2="54.1528" gradientUnits="userSpaceOnUse">
<stop stop-color="#6A1AB9"/>
<stop offset="1" stop-color="#EB885A"/>
</linearGradient>
<linearGradient id="paint8_linear_1057_237" x1="41.4796" y1="25.6802" x2="57.0752" y2="67.2461" gradientUnits="userSpaceOnUse">
<stop stop-color="#6A1AB9"/>
<stop offset="1" stop-color="#EB885A"/>
</linearGradient>
<linearGradient id="paint9_linear_1057_237" x1="59.7564" y1="29.9428" x2="39.7504" y2="66.3109" gradientUnits="userSpaceOnUse">
<stop stop-color="#6A1AB9"/>
<stop offset="1" stop-color="#EB885A"/>
</linearGradient>
<linearGradient id="paint10_linear_1057_237" x1="67.3678" y1="45.8134" x2="29.5791" y2="53.7118" gradientUnits="userSpaceOnUse">
<stop stop-color="#6A1AB9"/>
<stop offset="1" stop-color="#EB885A"/>
</linearGradient>
<linearGradient id="paint11_linear_1057_237" x1="60.2125" y1="60.6203" x2="31.9254" y2="38.8587" gradientUnits="userSpaceOnUse">
<stop stop-color="#6A1AB9"/>
<stop offset="1" stop-color="#EB885A"/>
</linearGradient>
<linearGradient id="paint12_linear_1057_237" x1="45.2766" y1="63.9501" x2="43.5318" y2="31.2359" gradientUnits="userSpaceOnUse">
<stop stop-color="#6A1AB9"/>
<stop offset="1" stop-color="#EB885A"/>
</linearGradient>
<linearGradient id="paint13_linear_1057_237" x1="34.3155" y1="54.9674" x2="55.8821" y2="34.3729" gradientUnits="userSpaceOnUse">
<stop stop-color="#6A1AB9"/>
<stop offset="1" stop-color="#EB885A"/>
</linearGradient>
<linearGradient id="paint14_linear_1057_237" x1="34.6689" y1="41.9093" x2="61.4056" y2="44.5747" gradientUnits="userSpaceOnUse">
<stop stop-color="#6A1AB9"/>
<stop offset="1" stop-color="#EB885A"/>
</linearGradient>
</defs>
</svg>
