<svg width="438" height="379" viewBox="0 0 438 379" fill="none" xmlns="http://www.w3.org/2000/svg">
<line y1="188" x2="436" y2="188" stroke="url(#paint0_radial_1057_1129)" stroke-opacity="0.05" stroke-width="2"/>
<line y1="308" x2="436" y2="308" stroke="url(#paint1_radial_1057_1129)" stroke-opacity="0.05" stroke-width="2"/>
<line y1="88" x2="436" y2="88" stroke="url(#paint2_radial_1057_1129)" stroke-opacity="0.05" stroke-width="2"/>
<line x1="219" y1="79" x2="219" y2="319" stroke="url(#paint3_radial_1057_1129)" stroke-opacity="0.05" stroke-width="2"/>
<line x1="59" y1="79" x2="59" y2="319" stroke="url(#paint4_radial_1057_1129)" stroke-opacity="0.05" stroke-width="2"/>
<line x1="379" y1="79" x2="379" y2="319" stroke="url(#paint5_radial_1057_1129)" stroke-opacity="0.05" stroke-width="2"/>
<circle opacity="0.4" cx="59" cy="188" r="3" fill="url(#paint6_linear_1057_1129)"/>
<circle opacity="0.4" cx="379" cy="89" r="3" fill="url(#paint7_linear_1057_1129)"/>
<g opacity="0.2" filter="url(#filter0_f_1057_1129)">
<rect x="102" y="100" width="236" height="206" rx="99" fill="#EB885A"/>
</g>
<g clip-path="url(#clip0_1057_1129)">
<rect x="147.469" y="128.688" width="141.866" height="138.682" rx="24" fill="url(#paint8_linear_1057_1129)"/>
<rect x="147.969" y="129.188" width="140.866" height="137.682" rx="23.5" stroke="white" stroke-opacity="0.4"/>
<path d="M208.639 178.936L190.711 219.273H195.581L200.107 208.905H221.413L225.881 219.273H230.693L212.766 178.936H208.641H208.639ZM201.766 205.053L210.757 184.317L219.749 205.053H201.763H201.766Z" fill="white"/>
<path d="M242.146 178.936H237.449V219.273H242.146V178.936Z" fill="white"/>
<path d="M265.111 241.35H172.141V215.101L175.899 212.871V188.545L172.141 185.145V156.15H265.111V185.156L261.697 187.723V212.548L265.111 215.115V241.353V241.35ZM172.482 241.013H264.77V215.28L261.355 212.714V187.552L264.77 184.985V156.487H172.482V184.996L176.24 188.396V213.061L172.482 215.291V241.011V241.013Z" fill="white"/>
<path d="M180.599 147.524H179.922V152.88H180.599V147.524Z" fill="white"/>
<path d="M183.192 147.524H182.516V152.88H183.192V147.524Z" fill="white"/>
<path d="M185.786 147.524H185.109V152.88H185.786V147.524Z" fill="white"/>
<path d="M188.384 147.524H187.707V152.88H188.384V147.524Z" fill="white"/>
<path d="M190.978 147.524H190.301V152.88H190.978V147.524Z" fill="white"/>
<path d="M193.571 147.524H192.895V152.88H193.571V147.524Z" fill="white"/>
<path d="M196.165 147.524H195.488V152.88H196.165V147.524Z" fill="white"/>
<path d="M198.759 147.524H198.082V152.88H198.759V147.524Z" fill="white"/>
<path d="M201.353 147.524H200.676V152.88H201.353V147.524Z" fill="white"/>
<path d="M203.95 147.524H203.273V152.88H203.95V147.524Z" fill="white"/>
<path d="M206.544 147.524H205.867V152.88H206.544V147.524Z" fill="white"/>
<path d="M209.138 147.524H208.461V152.88H209.138V147.524Z" fill="white"/>
<path d="M211.732 147.524H211.055V152.88H211.732V147.524Z" fill="white"/>
<path d="M214.325 147.524H213.648V152.88H214.325V147.524Z" fill="white"/>
<path d="M216.923 147.524H216.246V152.88H216.923V147.524Z" fill="white"/>
<path d="M219.517 147.524H218.84V152.88H219.517V147.524Z" fill="white"/>
<path d="M222.11 147.524H221.434V152.88H222.11V147.524Z" fill="white"/>
<path d="M224.704 147.524H224.027V152.88H224.704V147.524Z" fill="white"/>
<path d="M227.302 147.524H226.625V152.88H227.302V147.524Z" fill="white"/>
<path d="M229.896 147.524H229.219V152.88H229.896V147.524Z" fill="white"/>
<path d="M232.489 147.524H231.812V152.88H232.489V147.524Z" fill="white"/>
<path d="M235.083 147.524H234.406V152.88H235.083V147.524Z" fill="white"/>
<path d="M237.677 147.524H237V152.88H237.677V147.524Z" fill="white"/>
<path d="M240.271 147.524H239.594V152.88H240.271V147.524Z" fill="white"/>
<path d="M242.864 147.524H242.188V152.88H242.864V147.524Z" fill="white"/>
<path d="M245.462 147.524H244.785V152.88H245.462V147.524Z" fill="white"/>
<path d="M248.056 147.524H247.379V152.88H248.056V147.524Z" fill="white"/>
<path d="M250.649 147.524H249.973V152.88H250.649V147.524Z" fill="white"/>
<path d="M253.243 147.524H252.566V152.88H253.243V147.524Z" fill="white"/>
<path d="M255.841 147.524H255.164V152.88H255.841V147.524Z" fill="white"/>
<path d="M274.898 209.272V208.602H269.484V209.272H274.898Z" fill="white"/>
<path d="M274.898 211.839V211.168H269.484V211.839H274.898Z" fill="white"/>
<path d="M274.898 214.405V213.734H269.484V214.405H274.898Z" fill="white"/>
<path d="M274.898 216.972V216.301H269.484V216.972H274.898Z" fill="white"/>
<path d="M274.895 219.538V218.868H269.48V219.538H274.895Z" fill="white"/>
<path d="M274.895 222.104V221.434H269.48V222.104H274.895Z" fill="white"/>
<path d="M274.895 224.671V224H269.48V224.671H274.895Z" fill="white"/>
<path d="M274.898 227.237V226.567H269.484V227.237H274.898Z" fill="white"/>
<path d="M274.898 229.804V229.133H269.484V229.804H274.898Z" fill="white"/>
<path d="M274.898 232.37V231.7H269.484V232.37H274.898Z" fill="white"/>
<path d="M274.898 234.934V234.263H269.484V234.934H274.898Z" fill="white"/>
<path d="M274.898 237.5V236.83H269.484V237.5H274.898Z" fill="white"/>
<path d="M274.898 240.067V239.396H269.484V240.067H274.898Z" fill="white"/>
<path d="M181.689 245.293H181.012V250.65H181.689V245.293Z" fill="white"/>
<path d="M184.282 245.293H183.605V250.65H184.282V245.293Z" fill="white"/>
<path d="M186.876 245.293H186.199V250.65H186.876V245.293Z" fill="white"/>
<path d="M189.474 245.293H188.797V250.65H189.474V245.293Z" fill="white"/>
<path d="M192.067 245.293H191.391V250.65H192.067V245.293Z" fill="white"/>
<path d="M194.661 245.293H193.984V250.65H194.661V245.293Z" fill="white"/>
<path d="M197.255 245.293H196.578V250.65H197.255V245.293Z" fill="white"/>
<path d="M199.849 245.293H199.172V250.65H199.849V245.293Z" fill="white"/>
<path d="M202.442 245.293H201.766V250.65H202.442V245.293Z" fill="white"/>
<path d="M205.04 245.293H204.363V250.65H205.04V245.293Z" fill="white"/>
<path d="M207.634 245.293H206.957V250.65H207.634V245.293Z" fill="white"/>
<path d="M210.228 245.293H209.551V250.65H210.228V245.293Z" fill="white"/>
<path d="M212.825 245.293H212.148V250.65H212.825V245.293Z" fill="white"/>
<path d="M215.419 245.293H214.742V250.65H215.419V245.293Z" fill="white"/>
<path d="M218.013 245.293H217.336V250.65H218.013V245.293Z" fill="white"/>
<path d="M220.607 245.293H219.93V250.65H220.607V245.293Z" fill="white"/>
<path d="M223.2 245.293H222.523V250.65H223.2V245.293Z" fill="white"/>
<path d="M225.794 245.293H225.117V250.65H225.794V245.293Z" fill="white"/>
<path d="M228.388 245.293H227.711V250.65H228.388V245.293Z" fill="white"/>
<path d="M230.985 245.293H230.309V250.65H230.985V245.293Z" fill="white"/>
<path d="M233.579 245.293H232.902V250.65H233.579V245.293Z" fill="white"/>
<path d="M236.173 245.293H235.496V250.65H236.173V245.293Z" fill="white"/>
<path d="M238.767 245.293H238.09V250.65H238.767V245.293Z" fill="white"/>
<path d="M241.364 245.293H240.688V250.65H241.364V245.293Z" fill="white"/>
<path d="M243.958 245.293H243.281V250.65H243.958V245.293Z" fill="white"/>
<path d="M246.552 245.293H245.875V250.65H246.552V245.293Z" fill="white"/>
<path d="M249.146 245.293H248.469V250.65H249.146V245.293Z" fill="white"/>
<path d="M251.739 245.293H251.062V250.65H251.739V245.293Z" fill="white"/>
<path d="M254.333 245.293H253.656V250.65H254.333V245.293Z" fill="white"/>
<path d="M256.931 245.293H256.254V250.65H256.931V245.293Z" fill="white"/>
<path d="M263.454 157.718H260.973V160.174H263.454V157.718Z" fill="white"/>
<path d="M176.591 157.718H174.109V160.174H176.591V157.718Z" fill="white"/>
<path d="M263.454 237.26H260.973V239.716H263.454V237.26Z" fill="white"/>
<path d="M176.591 237.26H174.109V239.716H176.591V237.26Z" fill="white"/>
<path d="M272.304 160.902C272.304 161.619 271.716 162.202 270.992 162.202C270.268 162.202 269.68 161.619 269.68 160.902C269.68 160.184 270.268 159.602 270.992 159.602C271.716 159.602 272.304 160.184 272.304 160.902Z" fill="white"/>
<path d="M272.304 165.442C272.304 166.159 271.716 166.741 270.992 166.741C270.268 166.741 269.68 166.159 269.68 165.442C269.68 164.724 270.268 164.142 270.992 164.142C271.716 164.142 272.304 164.724 272.304 165.442Z" fill="white"/>
<path d="M272.304 169.981C272.304 170.699 271.716 171.281 270.992 171.281C270.268 171.281 269.68 170.699 269.68 169.981C269.68 169.264 270.268 168.681 270.992 168.681C271.716 168.681 272.304 169.264 272.304 169.981Z" fill="white"/>
<path d="M272.304 174.518C272.304 175.236 271.716 175.818 270.992 175.818C270.268 175.818 269.68 175.236 269.68 174.518C269.68 173.801 270.268 173.218 270.992 173.218C271.716 173.218 272.304 173.801 272.304 174.518Z" fill="white"/>
<path d="M272.304 179.057C272.304 179.775 271.716 180.357 270.992 180.357C270.268 180.357 269.68 179.775 269.68 179.057C269.68 178.34 270.268 177.757 270.992 177.757C271.716 177.757 272.304 178.34 272.304 179.057Z" fill="white"/>
<path d="M272.304 183.594C272.304 184.312 271.716 184.894 270.992 184.894C270.268 184.894 269.68 184.312 269.68 183.594C269.68 182.877 270.268 182.295 270.992 182.295C271.716 182.295 272.304 182.877 272.304 183.594Z" fill="white"/>
<path d="M272.304 188.134C272.304 188.851 271.716 189.433 270.992 189.433C270.268 189.433 269.68 188.851 269.68 188.134C269.68 187.416 270.268 186.834 270.992 186.834C271.716 186.834 272.304 187.416 272.304 188.134Z" fill="white"/>
<path d="M272.304 192.67C272.304 193.388 271.716 193.97 270.992 193.97C270.268 193.97 269.68 193.388 269.68 192.67C269.68 191.953 270.268 191.371 270.992 191.371C271.716 191.371 272.304 191.953 272.304 192.67Z" fill="white"/>
<path d="M272.304 197.21C272.304 197.927 271.716 198.51 270.992 198.51C270.268 198.51 269.68 197.927 269.68 197.21C269.68 196.492 270.268 195.91 270.992 195.91C271.716 195.91 272.304 196.492 272.304 197.21Z" fill="white"/>
<path d="M272.304 201.747C272.304 202.464 271.716 203.047 270.992 203.047C270.268 203.047 269.68 202.464 269.68 201.747C269.68 201.029 270.268 200.447 270.992 200.447C271.716 200.447 272.304 201.029 272.304 201.747Z" fill="white"/>
<path d="M160.867 190.4V191.07H166.282V190.4H160.867Z" fill="white"/>
<path d="M160.867 187.833V188.504H166.282V187.833H160.867Z" fill="white"/>
<path d="M160.871 185.267V185.937H166.286V185.267H160.871Z" fill="white"/>
<path d="M160.871 182.7V183.37H166.286V182.7H160.871Z" fill="white"/>
<path d="M160.871 180.134V180.804H166.286V180.134H160.871Z" fill="white"/>
<path d="M160.871 177.567V178.238H166.286V177.567H160.871Z" fill="white"/>
<path d="M160.871 175V175.671H166.286V175H160.871Z" fill="white"/>
<path d="M160.871 172.435V173.105H166.286V172.435H160.871Z" fill="white"/>
<path d="M160.867 169.868V170.538H166.282V169.868H160.867Z" fill="white"/>
<path d="M160.867 167.301V167.972H166.282V167.301H160.867Z" fill="white"/>
<path d="M160.867 164.735V165.406H166.282V164.735H160.867Z" fill="white"/>
<path d="M160.867 162.169V162.839H166.282V162.169H160.867Z" fill="white"/>
<path d="M160.867 159.602V160.273H166.282V159.602H160.867Z" fill="white"/>
<path d="M164.773 239.391C165.498 239.391 166.086 238.809 166.086 238.091C166.086 237.373 165.498 236.791 164.773 236.791C164.049 236.791 163.461 237.373 163.461 238.091C163.461 238.809 164.049 239.391 164.773 239.391Z" fill="white"/>
<path d="M164.773 234.851C165.498 234.851 166.086 234.269 166.086 233.551C166.086 232.834 165.498 232.252 164.773 232.252C164.049 232.252 163.461 232.834 163.461 233.551C163.461 234.269 164.049 234.851 164.773 234.851Z" fill="white"/>
<path d="M163.461 229.014C163.461 228.297 164.05 227.715 164.773 227.715C165.497 227.715 166.086 228.297 166.086 229.014C166.086 229.732 165.497 230.314 164.773 230.314C164.05 230.314 163.461 229.732 163.461 229.014Z" fill="white"/>
<path d="M164.773 225.774C165.498 225.774 166.086 225.193 166.086 224.475C166.086 223.757 165.498 223.175 164.773 223.175C164.049 223.175 163.461 223.757 163.461 224.475C163.461 225.193 164.049 225.774 164.773 225.774Z" fill="white"/>
<path d="M164.773 221.238C165.498 221.238 166.086 220.656 166.086 219.938C166.086 219.22 165.498 218.638 164.773 218.638C164.049 218.638 163.461 219.22 163.461 219.938C163.461 220.656 164.049 221.238 164.773 221.238Z" fill="white"/>
<path d="M164.773 216.698C165.498 216.698 166.086 216.116 166.086 215.398C166.086 214.681 165.498 214.099 164.773 214.099C164.049 214.099 163.461 214.681 163.461 215.398C163.461 216.116 164.049 216.698 164.773 216.698Z" fill="white"/>
<path d="M163.461 210.862C163.461 210.145 164.05 209.562 164.773 209.562C165.497 209.562 166.086 210.145 166.086 210.862C166.086 211.58 165.497 212.162 164.773 212.162C164.05 212.162 163.461 211.58 163.461 210.862Z" fill="white"/>
<path d="M164.773 207.622C165.498 207.622 166.086 207.04 166.086 206.322C166.086 205.605 165.498 205.023 164.773 205.023C164.049 205.023 163.461 205.605 163.461 206.322C163.461 207.04 164.049 207.622 164.773 207.622Z" fill="white"/>
<path d="M164.773 203.085C165.498 203.085 166.086 202.503 166.086 201.786C166.086 201.068 165.498 200.486 164.773 200.486C164.049 200.486 163.461 201.068 163.461 201.786C163.461 202.503 164.049 203.085 164.773 203.085Z" fill="white"/>
<path d="M164.773 198.546C165.498 198.546 166.086 197.964 166.086 197.246C166.086 196.528 165.498 195.946 164.773 195.946C164.049 195.946 163.461 196.528 163.461 197.246C163.461 197.964 164.049 198.546 164.773 198.546Z" fill="white"/>
<path d="M255.643 162.045H180.16V162.188H255.643V162.045Z" fill="white"/>
<path d="M256.327 235.497H180.844V235.69H256.327V235.497Z" fill="white"/>
<g style="mix-blend-mode:color-dodge">
</g>
</g>
<rect x="75" y="99" width="56" height="55" rx="12" fill="#FCEEEC"/>
<rect x="75.5" y="99.5" width="55" height="54" rx="11.5" stroke="url(#paint9_linear_1057_1129)" stroke-opacity="0.2"/>
<g clip-path="url(#clip1_1057_1129)">
<path d="M97.2869 130.12C96.5478 129.97 95.8608 129.629 95.2941 129.132C94.6148 128.538 94.1268 127.756 93.8918 126.885C93.6568 126.014 93.6854 125.093 93.974 124.238C94.2625 123.383 94.7981 122.633 95.5129 122.083C96.2277 121.532 97.0896 121.206 97.9898 121.146C98.0519 121.147 98.1131 121.131 98.1663 121.099C98.2194 121.067 98.2623 121.02 98.2898 120.964C98.7023 119.77 99.5117 118.753 100.583 118.083C101.655 117.413 102.923 117.131 104.178 117.283C105.432 117.435 106.597 118.012 107.477 118.919C108.357 119.825 108.9 121.006 109.015 122.264C109.025 122.331 109.054 122.393 109.097 122.443C109.141 122.494 109.199 122.531 109.263 122.55C110.14 122.756 110.918 123.259 111.466 123.975C112.014 124.69 112.298 125.572 112.268 126.473C112.239 127.373 111.899 128.236 111.306 128.914C110.713 129.592 109.904 130.044 109.015 130.193" stroke="url(#paint10_linear_1057_1129)" stroke-linecap="round" stroke-linejoin="round"/>
<path d="M99.4716 132.351C99.0459 132.277 99.0459 131.666 99.4716 131.591C100.226 131.46 100.923 131.107 101.476 130.578C102.028 130.048 102.411 129.366 102.574 128.619L102.603 128.5C102.696 128.079 103.294 128.076 103.39 128.496L103.422 128.633C103.591 129.378 103.978 130.056 104.532 130.582C105.086 131.108 105.783 131.458 106.536 131.589C106.963 131.663 106.963 132.277 106.536 132.351C105.783 132.482 105.086 132.833 104.532 133.358C103.978 133.884 103.591 134.562 103.422 135.307L103.39 135.444C103.294 135.864 102.696 135.861 102.604 135.44L102.577 135.323C102.414 134.575 102.031 133.893 101.478 133.364C100.925 132.834 100.227 132.481 99.4731 132.35L99.4716 132.351Z" stroke="url(#paint11_linear_1057_1129)" stroke-linecap="round" stroke-linejoin="round"/>
</g>
<rect x="351" y="118" width="56" height="55" rx="12" fill="#FCF5EC"/>
<rect x="351.5" y="118.5" width="55" height="54" rx="11.5" stroke="url(#paint12_linear_1057_1129)" stroke-opacity="0.2"/>
<path d="M378.047 153.886C378.017 154.008 377.947 154.116 377.848 154.193C377.749 154.27 377.627 154.312 377.502 154.312C377.455 154.312 377.41 154.307 377.365 154.296L374.365 153.546C374.302 153.53 374.243 153.503 374.189 153.468L371.939 151.968C371.878 151.927 371.825 151.874 371.784 151.813C371.743 151.751 371.714 151.682 371.699 151.61C371.67 151.463 371.7 151.311 371.783 151.187C371.866 151.062 371.994 150.976 372.141 150.947C372.213 150.932 372.288 150.932 372.361 150.946C372.433 150.961 372.502 150.989 372.564 151.03L374.732 152.476L377.638 153.202C377.71 153.22 377.778 153.252 377.837 153.296C377.897 153.34 377.947 153.396 377.985 153.459C378.023 153.523 378.048 153.593 378.058 153.666C378.069 153.74 378.065 153.814 378.047 153.886ZM390.491 144.83C390.437 144.993 390.351 145.144 390.238 145.275C390.126 145.405 389.989 145.511 389.834 145.588L387.584 146.713L382.399 151.898C382.294 152.003 382.151 152.062 382.002 152.062C381.955 152.062 381.909 152.057 381.865 152.046L375.865 150.546C375.797 150.528 375.734 150.498 375.677 150.457L370.461 146.734L368.171 145.588C367.859 145.432 367.623 145.159 367.513 144.829C367.403 144.499 367.428 144.139 367.584 143.827L369.913 139.169C370.069 138.858 370.342 138.621 370.672 138.511C371.002 138.401 371.363 138.426 371.674 138.582L373.808 139.649L378.847 138.209C378.948 138.18 379.055 138.18 379.156 138.209L384.195 139.649L386.329 138.582C386.64 138.426 387.001 138.401 387.331 138.511C387.661 138.621 387.934 138.858 388.09 139.169L390.419 143.827C390.497 143.981 390.543 144.149 390.555 144.321C390.567 144.493 390.546 144.666 390.491 144.83ZM368.674 144.582L370.5 145.5L373.002 140.501L371.171 139.588C371.126 139.566 371.075 139.562 371.028 139.578C370.98 139.594 370.942 139.628 370.919 139.672L368.59 144.331C368.568 144.375 368.565 144.426 368.58 144.473C368.588 144.497 368.6 144.519 368.616 144.537C368.632 144.556 368.652 144.571 368.674 144.582ZM384.908 147.796L382.027 145.489C380.246 147.024 377.941 147.251 376.046 146.04C375.88 145.934 375.74 145.793 375.636 145.626C375.532 145.459 375.467 145.271 375.445 145.076C375.424 144.881 375.446 144.683 375.512 144.497C375.577 144.312 375.683 144.144 375.822 144.005L380.108 139.846C380.17 139.786 380.246 139.741 380.328 139.715L379.002 139.335L374.144 140.719L371.47 146.072L376.242 149.48L381.829 150.876L384.908 147.796ZM386.565 146.138L383.904 140.812H380.729L376.613 144.806C376.595 144.825 376.581 144.848 376.573 144.873C376.564 144.899 376.562 144.925 376.565 144.951C376.568 144.98 376.577 145.008 376.593 145.032C376.608 145.056 376.629 145.077 376.653 145.092C377.899 145.888 379.854 146.111 381.602 144.35C381.7 144.251 381.831 144.193 381.969 144.185C382.108 144.177 382.244 144.221 382.352 144.307L385.71 147L386.565 146.138ZM389.412 144.331L387.084 139.672C387.062 139.628 387.023 139.594 386.976 139.578C386.929 139.562 386.877 139.566 386.833 139.588L385.006 140.501L387.503 145.5L389.329 144.587C389.351 144.576 389.371 144.561 389.387 144.542C389.403 144.523 389.416 144.502 389.423 144.478C389.431 144.454 389.435 144.429 389.433 144.403C389.432 144.378 389.425 144.353 389.413 144.331H389.412Z" fill="url(#paint13_linear_1057_1129)"/>
<rect x="350" y="278" width="56" height="55" rx="12" fill="#FCF5F2"/>
<rect x="350.5" y="278.5" width="55" height="54" rx="11.5" stroke="url(#paint14_linear_1057_1129)" stroke-opacity="0.2"/>
<path d="M370.615 313.5C370.155 313.5 369.771 313.346 369.463 313.038C369.154 312.729 369 312.345 369 311.885V302.115C369 301.655 369.154 301.271 369.463 300.963C369.771 300.654 370.155 300.5 370.615 300.5H375V299.115C375 298.655 375.154 298.271 375.463 297.963C375.771 297.654 376.155 297.5 376.615 297.5H379.385C379.845 297.5 380.229 297.654 380.538 297.963C380.846 298.271 381 298.655 381 299.115V300.5H385.385C385.845 300.5 386.229 300.654 386.537 300.963C386.846 301.271 387 301.655 387 302.115V311.885C387 312.345 386.846 312.729 386.538 313.037C386.229 313.346 385.845 313.5 385.385 313.5H370.615ZM376 300.5H380V299.115C380 298.962 379.936 298.821 379.808 298.692C379.679 298.564 379.538 298.5 379.385 298.5H376.615C376.462 298.5 376.321 298.564 376.192 298.692C376.064 298.821 376 298.962 376 299.115V300.5ZM386 308H380V309.5H376V308H370V311.885C370 312.038 370.064 312.179 370.192 312.308C370.321 312.436 370.462 312.5 370.615 312.5H385.385C385.538 312.5 385.679 312.436 385.808 312.308C385.936 312.179 386 312.038 386 311.885V308ZM377 308.5H379V306.5H377V308.5ZM370 307H376V305.5H380V307H386V302.115C386 301.962 385.936 301.821 385.808 301.692C385.679 301.564 385.538 301.5 385.385 301.5H370.615C370.462 301.5 370.321 301.564 370.192 301.692C370.064 301.821 370 301.962 370 302.115V307Z" fill="url(#paint15_linear_1057_1129)"/>
<rect x="32" y="278" width="56" height="55" rx="12" fill="#FDF1F8"/>
<rect x="32.5" y="278.5" width="55" height="54" rx="11.5" stroke="url(#paint16_linear_1057_1129)" stroke-opacity="0.2"/>
<g clip-path="url(#clip2_1057_1129)">
<path d="M58.6025 301.71C57.6288 302.448 56.7075 303.253 55.8454 304.119C51.7825 308.181 49.7254 312.709 51.2483 314.233C52.7711 315.756 57.2997 313.697 61.3611 309.636C62.227 308.773 63.0318 307.851 63.7697 306.877" stroke="url(#paint17_linear_1057_1129)" stroke-linecap="round" stroke-linejoin="round"/>
<path d="M63.7683 306.877C66.164 310.057 67.1397 313.048 65.9569 314.231C64.4326 315.756 59.9054 313.697 55.8426 309.636C51.7826 305.571 49.7254 301.046 51.2483 299.521C52.4311 298.34 55.4226 299.316 58.6026 301.71" stroke="url(#paint18_linear_1057_1129)" stroke-linecap="round" stroke-linejoin="round"/>
<path d="M57.8906 306.877C57.8906 307.067 57.9659 307.248 58.0998 307.382C58.2338 307.516 58.4155 307.591 58.6049 307.591C58.7944 307.591 58.976 307.516 59.11 307.382C59.2439 307.248 59.3192 307.067 59.3192 306.877C59.3192 306.688 59.2439 306.506 59.11 306.372C58.976 306.238 58.7944 306.163 58.6049 306.163C58.4155 306.163 58.2338 306.238 58.0998 306.372C57.9659 306.506 57.8906 306.688 57.8906 306.877ZM61.4763 300.657C61.0263 300.579 61.0263 299.934 61.4763 299.857C62.2711 299.719 63.0067 299.347 63.5893 298.789C64.172 298.231 64.5753 297.512 64.7478 296.724L64.7735 296.6C64.8706 296.157 65.5021 296.154 65.6021 296.596L65.6363 296.74C65.8153 297.525 66.2221 298.239 66.8057 298.793C67.3893 299.347 68.1236 299.716 68.9163 299.854C69.3678 299.933 69.3678 300.581 68.9163 300.659C68.1236 300.797 67.3893 301.166 66.8057 301.72C66.2221 302.274 65.8153 302.988 65.6363 303.773L65.6021 303.917C65.5021 304.36 64.8706 304.357 64.7735 303.914L64.7449 303.79C64.5724 303.002 64.1691 302.283 63.5865 301.725C63.0039 301.167 62.2683 300.795 61.4735 300.657H61.4763Z" stroke="url(#paint19_linear_1057_1129)" stroke-linecap="round" stroke-linejoin="round"/>
</g>
<defs>
<filter id="filter0_f_1057_1129" x="2" y="0" width="436" height="406" filterUnits="userSpaceOnUse" color-interpolation-filters="sRGB">
<feFlood flood-opacity="0" result="BackgroundImageFix"/>
<feBlend mode="normal" in="SourceGraphic" in2="BackgroundImageFix" result="shape"/>
<feGaussianBlur stdDeviation="50" result="effect1_foregroundBlur_1057_1129"/>
</filter>
<radialGradient id="paint0_radial_1057_1129" cx="0" cy="0" r="1" gradientUnits="userSpaceOnUse" gradientTransform="translate(218 189.001) scale(285.5 124478)">
<stop stop-color="#6A1AB9"/>
<stop offset="1" stop-color="#6A1AB9" stop-opacity="0"/>
</radialGradient>
<radialGradient id="paint1_radial_1057_1129" cx="0" cy="0" r="1" gradientUnits="userSpaceOnUse" gradientTransform="translate(218 308.999) scale(160 69760)">
<stop stop-color="#6A1AB9"/>
<stop offset="1" stop-color="#6A1AB9" stop-opacity="0"/>
</radialGradient>
<radialGradient id="paint2_radial_1057_1129" cx="0" cy="0" r="1" gradientUnits="userSpaceOnUse" gradientTransform="translate(218 88.9993) scale(207 90252)">
<stop stop-color="#6A1AB9"/>
<stop offset="1" stop-color="#6A1AB9" stop-opacity="0"/>
</radialGradient>
<radialGradient id="paint3_radial_1057_1129" cx="0" cy="0" r="1" gradientUnits="userSpaceOnUse" gradientTransform="translate(217.999 199) rotate(90.0003) scale(157.156 124478)">
<stop stop-color="#6A1AB9"/>
<stop offset="1" stop-color="#6A1AB9" stop-opacity="0"/>
</radialGradient>
<radialGradient id="paint4_radial_1057_1129" cx="0" cy="0" r="1" gradientUnits="userSpaceOnUse" gradientTransform="translate(57.9993 199) rotate(90.0003) scale(157.156 124478)">
<stop stop-color="#6A1AB9"/>
<stop offset="1" stop-color="#6A1AB9" stop-opacity="0"/>
</radialGradient>
<radialGradient id="paint5_radial_1057_1129" cx="0" cy="0" r="1" gradientUnits="userSpaceOnUse" gradientTransform="translate(377.999 199) rotate(90.0003) scale(157.156 124478)">
<stop stop-color="#6A1AB9"/>
<stop offset="1" stop-color="#6A1AB9" stop-opacity="0"/>
</radialGradient>
<linearGradient id="paint6_linear_1057_1129" x1="53" y1="182.5" x2="63.1399" y2="189.3" gradientUnits="userSpaceOnUse">
<stop stop-color="#6A1AB9"/>
<stop offset="1" stop-color="#EB885A"/>
</linearGradient>
<linearGradient id="paint7_linear_1057_1129" x1="373" y1="83.5" x2="383.14" y2="90.3003" gradientUnits="userSpaceOnUse">
<stop stop-color="#6A1AB9"/>
<stop offset="1" stop-color="#EB885A"/>
</linearGradient>
<linearGradient id="paint8_linear_1057_1129" x1="121.509" y1="110.344" x2="348.976" y2="219.762" gradientUnits="userSpaceOnUse">
<stop stop-color="#6A1AB9"/>
<stop offset="1" stop-color="#EB885A"/>
</linearGradient>
<linearGradient id="paint9_linear_1057_1129" x1="77.6071" y1="102.379" x2="129.865" y2="104.618" gradientUnits="userSpaceOnUse">
<stop stop-color="#6A1AB9"/>
<stop offset="1" stop-color="#EB885A"/>
</linearGradient>
<linearGradient id="paint10_linear_1057_1129" x1="94.5973" y1="118.038" x2="111.864" y2="119.078" gradientUnits="userSpaceOnUse">
<stop stop-color="#6A1AB9"/>
<stop offset="1" stop-color="#EB885A"/>
</linearGradient>
<linearGradient id="paint11_linear_1057_1129" x1="99.511" y1="128.648" x2="106.7" y2="128.955" gradientUnits="userSpaceOnUse">
<stop stop-color="#6A1AB9"/>
<stop offset="1" stop-color="#EB885A"/>
</linearGradient>
<linearGradient id="paint12_linear_1057_1129" x1="353.607" y1="121.379" x2="405.865" y2="123.618" gradientUnits="userSpaceOnUse">
<stop stop-color="#6A1AB9"/>
<stop offset="1" stop-color="#EB885A"/>
</linearGradient>
<linearGradient id="paint13_linear_1057_1129" x1="368.521" y1="139.178" x2="390.051" y2="140.477" gradientUnits="userSpaceOnUse">
<stop stop-color="#6A1AB9"/>
<stop offset="1" stop-color="#EB885A"/>
</linearGradient>
<linearGradient id="paint14_linear_1057_1129" x1="352.607" y1="281.379" x2="404.865" y2="283.618" gradientUnits="userSpaceOnUse">
<stop stop-color="#6A1AB9"/>
<stop offset="1" stop-color="#EB885A"/>
</linearGradient>
<linearGradient id="paint15_linear_1057_1129" x1="369.838" y1="298.483" x2="386.628" y2="299.278" gradientUnits="userSpaceOnUse">
<stop stop-color="#6A1AB9"/>
<stop offset="1" stop-color="#EB885A"/>
</linearGradient>
<linearGradient id="paint16_linear_1057_1129" x1="34.6071" y1="281.379" x2="86.8653" y2="283.618" gradientUnits="userSpaceOnUse">
<stop stop-color="#6A1AB9"/>
<stop offset="1" stop-color="#EB885A"/>
</linearGradient>
<linearGradient id="paint17_linear_1057_1129" x1="51.3524" y1="302.51" x2="63.5066" y2="303.022" gradientUnits="userSpaceOnUse">
<stop stop-color="#6A1AB9"/>
<stop offset="1" stop-color="#EB885A"/>
</linearGradient>
<linearGradient id="paint18_linear_1057_1129" x1="51.4776" y1="299.985" x2="66.1419" y2="300.602" gradientUnits="userSpaceOnUse">
<stop stop-color="#6A1AB9"/>
<stop offset="1" stop-color="#EB885A"/>
</linearGradient>
<linearGradient id="paint19_linear_1057_1129" x1="58.4197" y1="296.962" x2="69.0252" y2="297.41" gradientUnits="userSpaceOnUse">
<stop stop-color="#6A1AB9"/>
<stop offset="1" stop-color="#EB885A"/>
</linearGradient>
<clipPath id="clip0_1057_1129">
<rect width="283" height="226" fill="white" transform="translate(78 92)"/>
</clipPath>
<clipPath id="clip1_1057_1129">
<rect width="20" height="20" fill="white" transform="translate(93 116.5)"/>
</clipPath>
<clipPath id="clip2_1057_1129">
<rect width="20" height="20" fill="white" transform="translate(50 295.5)"/>
</clipPath>
</defs>
</svg>
