<svg width="436" height="264" viewBox="0 0 436 264" fill="none" xmlns="http://www.w3.org/2000/svg">
<g clip-path="url(#clip0_2257_666)">
<line y1="118" x2="436" y2="118" stroke="url(#paint0_radial_2257_666)" stroke-opacity="0.05" stroke-width="2"/>
<line y1="238" x2="436" y2="238" stroke="url(#paint1_radial_2257_666)" stroke-opacity="0.05" stroke-width="2"/>
<line y1="18" x2="436" y2="18" stroke="url(#paint2_radial_2257_666)" stroke-opacity="0.05" stroke-width="2"/>
<line x1="219" y1="9" x2="219" y2="249" stroke="url(#paint3_radial_2257_666)" stroke-opacity="0.05" stroke-width="2"/>
<line x1="59" y1="9" x2="59" y2="249" stroke="url(#paint4_radial_2257_666)" stroke-opacity="0.05" stroke-width="2"/>
<line x1="379" y1="9" x2="379" y2="249" stroke="url(#paint5_radial_2257_666)" stroke-opacity="0.05" stroke-width="2"/>
<circle opacity="0.4" cx="59" cy="118" r="3" fill="url(#paint6_linear_2257_666)"/>
<circle opacity="0.4" cx="379" cy="19" r="3" fill="url(#paint7_linear_2257_666)"/>
<g opacity="0.2" filter="url(#filter0_f_2257_666)">
<rect x="102" y="30" width="236" height="206" rx="99" fill="#EB885A"/>
</g>
<g clip-path="url(#clip1_2257_666)">
<rect x="147.469" y="58.6885" width="141.866" height="138.682" rx="24" fill="url(#paint8_linear_2257_666)"/>
<rect x="147.969" y="59.1885" width="140.866" height="137.682" rx="23.5" stroke="white" stroke-opacity="0.4"/>
<path d="M201.581 134.669H181.236V139.754H188.924V147.385H194.051V139.754H201.581V134.669Z" fill="#FBF6E2"/>
<path d="M201.738 124.493C201.738 123.144 201.198 121.85 200.237 120.897C199.276 119.943 197.972 119.407 196.613 119.407H186.36C185.001 119.407 183.697 119.943 182.736 120.897C181.774 121.85 181.234 123.144 181.233 124.493V132.119H186.36V124.493H188.923V132.119H194.05V124.493H196.613V132.119H201.738V124.493Z" fill="#FBF6E2"/>
<path d="M255.563 139.754C255.562 138.405 255.022 137.112 254.061 136.158C253.099 135.205 251.796 134.669 250.436 134.669H240.185C239.512 134.669 238.845 134.8 238.223 135.055C237.601 135.311 237.036 135.685 236.56 136.158C236.084 136.63 235.706 137.191 235.449 137.808C235.191 138.425 235.058 139.086 235.058 139.754V147.381H240.185V139.754H242.746V147.381H247.873V139.754H250.436V147.381H255.563V139.754Z" fill="#FBF6E2"/>
<path d="M181.235 111.779C181.235 113.127 181.775 114.421 182.736 115.374C183.697 116.328 185.001 116.864 186.36 116.864H196.613C197.972 116.864 199.276 116.328 200.237 115.374C201.198 114.421 201.738 113.127 201.738 111.779V104.152H196.613V111.779H194.05V104.152H188.923V111.779H186.36V104.152H181.233V111.779H181.235Z" fill="#FBF6E2"/>
<path d="M209.428 96.5184C208.069 96.5184 206.765 97.0542 205.804 98.0078C204.843 98.9614 204.303 100.255 204.303 101.603V111.778C204.303 113.127 204.843 114.421 205.804 115.374C206.765 116.328 208.068 116.865 209.428 116.865H217.113V111.778H209.428V109.234H217.113V104.147H209.428V101.603H217.113V96.5184H209.428Z" fill="#FBF6E2"/>
<path d="M209.428 134.669C208.069 134.669 206.765 135.205 205.804 136.158C204.843 137.112 204.303 138.405 204.303 139.754V149.929C204.303 151.277 204.843 152.571 205.804 153.524C206.765 154.478 208.069 155.014 209.428 155.014H217.113V149.929H209.428V147.385H217.113V142.298H209.428V139.754H217.113V134.669H209.428Z" fill="#FBF6E2"/>
<path d="M240.183 111.777C239.51 111.777 238.843 111.908 238.221 112.164C237.599 112.42 237.034 112.794 236.558 113.267C236.083 113.739 235.705 114.3 235.448 114.917C235.19 115.535 235.058 116.196 235.058 116.864V127.036C235.058 128.386 235.598 129.68 236.56 130.634C237.521 131.588 238.825 132.124 240.185 132.124H247.871V127.036H240.185V124.493H247.871V119.405H240.185V116.864H247.871V111.777H240.183Z" fill="#FBF6E2"/>
<path d="M229.597 123.732L232.497 119.414H227.37L224.807 123.227V119.414H219.682V132.132H224.807V128.319H227.37V132.132H232.497V128.319V128.16C232.468 127.229 232.182 126.324 231.671 125.543C231.159 124.763 230.442 124.136 229.597 123.732Z" fill="#FBF6E2"/>
<path d="M217.117 124.492C217.116 123.143 216.576 121.849 215.615 120.895C214.653 119.941 213.35 119.405 211.99 119.404H209.427C208.067 119.405 206.763 119.941 205.802 120.896C204.84 121.85 204.3 123.144 204.3 124.494V127.035C204.301 128.384 204.841 129.678 205.802 130.632C206.764 131.586 208.067 132.122 209.427 132.123H217.112V127.035L217.117 124.492ZM211.99 124.492V127.031H209.427V124.494L211.99 124.492Z" fill="#FBF6E2"/>
<path d="M232.497 139.754C232.496 138.405 231.955 137.112 230.994 136.159C230.033 135.206 228.729 134.67 227.37 134.669H224.807C224.134 134.669 223.467 134.801 222.845 135.056C222.223 135.312 221.658 135.687 221.183 136.159C220.707 136.632 220.329 137.192 220.072 137.81C219.814 138.427 219.682 139.088 219.682 139.756V142.298C219.682 142.966 219.814 143.627 220.072 144.244C220.329 144.862 220.707 145.422 221.183 145.895C221.658 146.367 222.223 146.742 222.845 146.998C223.467 147.253 224.134 147.385 224.807 147.385H232.492V142.298L232.497 139.754ZM227.37 139.754V142.293H224.807V139.756L227.37 139.754Z" fill="#FBF6E2"/>
<g style="mix-blend-mode:color-dodge">
</g>
</g>
<rect x="8" y="29" width="94" height="55" rx="12" fill="#FCEEEC"/>
<rect x="8.5" y="29.5" width="93" height="54" rx="11.5" stroke="url(#paint9_linear_2257_666)" stroke-opacity="0.2"/>
<path d="M45.068 55.378C45.068 56.1247 44.8253 56.7453 44.34 57.24C43.8547 57.7347 43.1407 58.0007 42.198 58.038L45.222 62H44.004L40.98 58.038H38.712V62H37.746V52.704H42.016C43.024 52.704 43.7847 52.956 44.298 53.46C44.8113 53.964 45.068 54.6033 45.068 55.378ZM43.542 56.722C43.9153 56.4233 44.102 55.9753 44.102 55.378C44.102 54.7807 43.9153 54.3327 43.542 54.034C43.178 53.7353 42.6647 53.586 42.002 53.586H38.712V57.156H42.002C42.6647 57.156 43.178 57.0113 43.542 56.722ZM52.5221 58.766C52.5221 58.9713 52.5128 59.1067 52.4941 59.172H47.2581C47.3141 59.788 47.5568 60.306 47.9861 60.726C48.4248 61.1367 48.9475 61.342 49.5541 61.342C50.4408 61.342 51.0848 60.9967 51.4861 60.306H52.4381C52.2141 60.9033 51.8501 61.3653 51.3461 61.692C50.8515 62.0187 50.2541 62.182 49.5541 62.182C48.6208 62.182 47.8461 61.8693 47.2301 61.244C46.6141 60.6093 46.3061 59.802 46.3061 58.822C46.3061 57.8607 46.6001 57.0673 47.1881 56.442C47.7855 55.8073 48.5555 55.49 49.4981 55.49C50.3661 55.49 51.0848 55.8027 51.6541 56.428C52.2328 57.0533 52.5221 57.8327 52.5221 58.766ZM47.2581 58.332H51.5701C51.4861 57.744 51.2621 57.2633 50.8981 56.89C50.5341 56.5167 50.0675 56.33 49.4981 56.33C48.8635 56.33 48.3501 56.512 47.9581 56.876C47.5661 57.24 47.3328 57.7253 47.2581 58.332ZM54.998 53.768H55.922V55.672H58.148V56.512H55.922V59.928C55.922 60.376 56.0294 60.6933 56.244 60.88C56.4587 61.0667 56.804 61.16 57.28 61.16H58.148V62H57.266C56.4727 62 55.894 61.846 55.53 61.538C55.1754 61.23 54.998 60.7587 54.998 60.124V56.512H53.682V55.672H54.998V53.768ZM62.4385 55.49C63.3158 55.49 64.0252 55.7093 64.5665 56.148C65.1078 56.5773 65.3785 57.1747 65.3785 57.94V62H64.4545V61.216C63.9038 61.86 63.1432 62.182 62.1725 62.182C61.3978 62.182 60.7678 62.0047 60.2825 61.65C59.7972 61.2953 59.5545 60.7867 59.5545 60.124C59.5545 59.4333 59.8018 58.92 60.2965 58.584C60.8005 58.2387 61.4445 58.066 62.2285 58.066H64.4545V57.94C64.4545 57.3893 64.2678 56.9833 63.8945 56.722C63.5305 56.4607 63.0358 56.33 62.4105 56.33C61.9252 56.33 61.5098 56.428 61.1645 56.624C60.8192 56.82 60.5765 57.0767 60.4365 57.394H59.4425C59.6292 56.7967 59.9885 56.33 60.5205 55.994C61.0525 55.658 61.6918 55.49 62.4385 55.49ZM64.4545 59.396V58.906H62.2005C61.0525 58.906 60.4785 59.312 60.4785 60.124C60.4785 60.5253 60.6325 60.8287 60.9405 61.034C61.2485 61.2393 61.6638 61.342 62.1865 61.342C62.8865 61.342 63.4372 61.1507 63.8385 60.768C64.2492 60.3853 64.4545 59.928 64.4545 59.396ZM67.6044 55.672H68.5284V62H67.6044V55.672ZM67.4924 54.006V52.774H68.6264V54.006H67.4924ZM70.9123 52.634H71.8363V62H70.9123V52.634Z" fill="url(#paint10_linear_2257_666)"/>
<rect x="48" y="209" width="94" height="55" rx="12" fill="#FCEEEC"/>
<rect x="48.5" y="209.5" width="93" height="54" rx="11.5" stroke="url(#paint11_linear_2257_666)" stroke-opacity="0.2"/>
<path d="M86.084 237.352C86.6067 237.66 86.952 237.991 87.12 238.346C87.288 238.701 87.372 239.111 87.372 239.578C87.372 240.287 87.1247 240.871 86.63 241.328C86.1353 241.776 85.4167 242 84.474 242H80.246V232.704H84.474C85.4167 232.704 86.1353 232.933 86.63 233.39C87.1247 233.847 87.372 234.431 87.372 235.14C87.372 235.607 87.288 236.017 87.12 236.372C86.9613 236.717 86.616 237.044 86.084 237.352ZM81.212 241.118H84.488C85.7667 241.118 86.406 240.567 86.406 239.466C86.406 238.915 86.238 238.5 85.902 238.22C85.566 237.94 85.0947 237.8 84.488 237.8H81.212V241.118ZM81.212 236.918H84.488C85.7667 236.918 86.406 236.363 86.406 235.252C86.406 234.701 86.238 234.286 85.902 234.006C85.566 233.726 85.0947 233.586 84.488 233.586H81.212V236.918ZM91.8135 235.49C92.6908 235.49 93.4002 235.709 93.9415 236.148C94.4828 236.577 94.7535 237.175 94.7535 237.94V242H93.8295V241.216C93.2788 241.86 92.5182 242.182 91.5475 242.182C90.7728 242.182 90.1428 242.005 89.6575 241.65C89.1722 241.295 88.9295 240.787 88.9295 240.124C88.9295 239.433 89.1768 238.92 89.6715 238.584C90.1755 238.239 90.8195 238.066 91.6035 238.066H93.8295V237.94C93.8295 237.389 93.6428 236.983 93.2695 236.722C92.9055 236.461 92.4108 236.33 91.7855 236.33C91.3002 236.33 90.8848 236.428 90.5395 236.624C90.1942 236.82 89.9515 237.077 89.8115 237.394H88.8175C89.0042 236.797 89.3635 236.33 89.8955 235.994C90.4275 235.658 91.0668 235.49 91.8135 235.49ZM93.8295 239.396V238.906H91.5755C90.4275 238.906 89.8535 239.312 89.8535 240.124C89.8535 240.525 90.0075 240.829 90.3155 241.034C90.6235 241.239 91.0388 241.342 91.5615 241.342C92.2615 241.342 92.8122 241.151 93.2135 240.768C93.6242 240.385 93.8295 239.928 93.8295 239.396ZM100.115 235.49C100.974 235.49 101.641 235.756 102.117 236.288C102.603 236.811 102.845 237.487 102.845 238.318V242H101.921V238.318C101.921 237.73 101.767 237.254 101.459 236.89C101.151 236.517 100.703 236.33 100.115 236.33C99.5181 236.33 98.9954 236.54 98.5474 236.96C98.0994 237.38 97.8754 237.94 97.8754 238.64V242H96.9514V235.672H97.8754V236.47C98.3887 235.817 99.1354 235.49 100.115 235.49ZM105.045 232.634H105.969V238.598L109.245 235.672H110.435L106.879 238.836L110.449 242H109.245L105.969 239.242V242H105.045V232.634Z" fill="url(#paint12_linear_2257_666)"/>
<rect x="328" y="159" width="94" height="55" rx="12" fill="#FCEEEC"/>
<rect x="328.5" y="159.5" width="93" height="54" rx="11.5" stroke="url(#paint13_linear_2257_666)" stroke-opacity="0.2"/>
<path d="M357.934 183.586H352.712V186.918H357.836V187.8H352.712V192H351.746V182.704H357.934V183.586ZM359.798 185.672H360.722V192H359.798V185.672ZM359.686 184.006V182.774H360.82V184.006H359.686ZM366.27 185.49C367.128 185.49 367.796 185.756 368.272 186.288C368.757 186.811 369 187.487 369 188.318V192H368.076V188.318C368.076 187.73 367.922 187.254 367.614 186.89C367.306 186.517 366.858 186.33 366.27 186.33C365.672 186.33 365.15 186.54 364.702 186.96C364.254 187.38 364.03 187.94 364.03 188.64V192H363.106V185.672H364.03V186.47C364.543 185.817 365.29 185.49 366.27 185.49ZM371.773 183.768H372.697V185.672H374.923V186.512H372.697V189.928C372.697 190.376 372.805 190.693 373.019 190.88C373.234 191.067 373.579 191.16 374.055 191.16H374.923V192H374.041C373.248 192 372.669 191.846 372.305 191.538C371.951 191.23 371.773 190.759 371.773 190.124V186.512H370.457V185.672H371.773V183.768ZM382.34 188.766C382.34 188.971 382.331 189.107 382.312 189.172H377.076C377.132 189.788 377.375 190.306 377.804 190.726C378.243 191.137 378.766 191.342 379.372 191.342C380.259 191.342 380.903 190.997 381.304 190.306H382.256C382.032 190.903 381.668 191.365 381.164 191.692C380.67 192.019 380.072 192.182 379.372 192.182C378.439 192.182 377.664 191.869 377.048 191.244C376.432 190.609 376.124 189.802 376.124 188.822C376.124 187.861 376.418 187.067 377.006 186.442C377.604 185.807 378.374 185.49 379.316 185.49C380.184 185.49 380.903 185.803 381.472 186.428C382.051 187.053 382.34 187.833 382.34 188.766ZM377.076 188.332H381.388C381.304 187.744 381.08 187.263 380.716 186.89C380.352 186.517 379.886 186.33 379.316 186.33C378.682 186.33 378.168 186.512 377.776 186.876C377.384 187.24 377.151 187.725 377.076 188.332ZM389.982 187.366H388.988C388.811 187.058 388.554 186.811 388.218 186.624C387.882 186.428 387.5 186.33 387.07 186.33C386.389 186.33 385.824 186.573 385.376 187.058C384.938 187.543 384.718 188.136 384.718 188.836C384.718 189.536 384.938 190.129 385.376 190.614C385.824 191.099 386.389 191.342 387.07 191.342C387.5 191.342 387.882 191.249 388.218 191.062C388.554 190.866 388.811 190.614 388.988 190.306H389.982C389.758 190.894 389.39 191.356 388.876 191.692C388.363 192.019 387.761 192.182 387.07 192.182C386.146 192.182 385.367 191.865 384.732 191.23C384.107 190.586 383.794 189.788 383.794 188.836C383.794 187.884 384.107 187.091 384.732 186.456C385.367 185.812 386.146 185.49 387.07 185.49C387.761 185.49 388.363 185.658 388.876 185.994C389.39 186.321 389.758 186.778 389.982 187.366ZM394.981 185.49C395.839 185.49 396.507 185.756 396.983 186.288C397.468 186.811 397.711 187.487 397.711 188.318V192H396.787V188.318C396.787 187.73 396.633 187.254 396.325 186.89C396.017 186.517 395.569 186.33 394.981 186.33C394.383 186.33 393.861 186.54 393.413 186.96C392.965 187.38 392.741 187.94 392.741 188.64V192H391.817V182.634H392.741V186.47C393.254 185.817 394.001 185.49 394.981 185.49Z" fill="url(#paint14_linear_2257_666)"/>
<g opacity="0.6">
<rect x="247" y="223" width="54" height="31.5957" rx="6.89362" fill="#FCEEEC"/>
<rect x="247.287" y="223.287" width="53.4255" height="31.0213" rx="6.60638" stroke="url(#paint15_linear_2257_666)" stroke-opacity="0.2" stroke-width="0.574468"/>
<path d="M260.271 237.464H257.271V239.378H260.214V239.885H257.271V242.298H256.716V236.958H260.271V237.464ZM264.277 239.105C264.631 239.47 264.808 239.928 264.808 240.48C264.808 241.032 264.631 241.491 264.277 241.856C263.923 242.22 263.478 242.402 262.942 242.402C262.406 242.402 261.958 242.22 261.599 241.856C261.245 241.491 261.068 241.032 261.068 240.48C261.068 239.928 261.245 239.47 261.599 239.105C261.958 238.74 262.406 238.558 262.942 238.558C263.478 238.558 263.923 238.74 264.277 239.105ZM263.907 241.51C264.153 241.231 264.277 240.888 264.277 240.48C264.277 240.073 264.153 239.732 263.907 239.459C263.66 239.18 263.338 239.041 262.942 239.041C262.545 239.041 262.221 239.18 261.969 239.459C261.722 239.732 261.599 240.073 261.599 240.48C261.599 240.888 261.722 241.231 261.969 241.51C262.221 241.783 262.545 241.92 262.942 241.92C263.338 241.92 263.66 241.783 263.907 241.51ZM268.864 239.105C269.217 239.47 269.394 239.928 269.394 240.48C269.394 241.032 269.217 241.491 268.864 241.856C268.51 242.22 268.065 242.402 267.528 242.402C266.992 242.402 266.545 242.22 266.185 241.856C265.832 241.491 265.655 241.032 265.655 240.48C265.655 239.928 265.832 239.47 266.185 239.105C266.545 238.74 266.992 238.558 267.528 238.558C268.065 238.558 268.51 238.74 268.864 239.105ZM268.494 241.51C268.74 241.231 268.864 240.888 268.864 240.48C268.864 240.073 268.74 239.732 268.494 239.459C268.247 239.18 267.925 239.041 267.528 239.041C267.132 239.041 266.807 239.18 266.555 239.459C266.309 239.732 266.185 240.073 266.185 240.48C266.185 240.888 266.309 241.231 266.555 241.51C266.807 241.783 267.132 241.92 267.528 241.92C267.925 241.92 268.247 241.783 268.494 241.51ZM270.724 241.839C270.402 241.464 270.241 241.011 270.241 240.48C270.241 239.949 270.402 239.496 270.724 239.121C271.051 238.746 271.501 238.558 272.075 238.558C272.359 238.558 272.617 238.612 272.847 238.719C273.078 238.826 273.257 238.96 273.386 239.121V236.917H273.917V242.298H273.386V241.839C273.257 242 273.078 242.134 272.847 242.242C272.617 242.349 272.359 242.402 272.075 242.402C271.501 242.402 271.051 242.215 270.724 241.839ZM271.134 239.467C270.893 239.746 270.772 240.083 270.772 240.48C270.772 240.877 270.893 241.217 271.134 241.502C271.381 241.78 271.694 241.92 272.075 241.92C272.45 241.92 272.764 241.797 273.016 241.55C273.273 241.298 273.402 240.941 273.402 240.48C273.402 240.019 273.273 239.665 273.016 239.419C272.764 239.167 272.45 239.041 272.075 239.041C271.694 239.041 271.381 239.183 271.134 239.467ZM275.596 237.569H276.127V238.663H277.405V239.145H276.127V241.108C276.127 241.365 276.188 241.547 276.312 241.654C276.435 241.762 276.633 241.815 276.907 241.815H277.405V242.298H276.899C276.443 242.298 276.111 242.209 275.901 242.032C275.698 241.856 275.596 241.585 275.596 241.22V239.145H274.84V238.663H275.596V237.569ZM281.666 240.44C281.666 240.558 281.661 240.636 281.65 240.673H278.642C278.674 241.027 278.814 241.325 279.061 241.566C279.313 241.802 279.613 241.92 279.961 241.92C280.471 241.92 280.841 241.721 281.071 241.325H281.618C281.489 241.668 281.28 241.933 280.991 242.121C280.707 242.309 280.363 242.402 279.961 242.402C279.425 242.402 278.98 242.223 278.626 241.864C278.272 241.499 278.095 241.035 278.095 240.472C278.095 239.92 278.264 239.464 278.602 239.105C278.945 238.74 279.388 238.558 279.929 238.558C280.428 238.558 280.841 238.738 281.168 239.097C281.5 239.456 281.666 239.904 281.666 240.44ZM278.642 240.191H281.119C281.071 239.853 280.942 239.577 280.733 239.362C280.524 239.148 280.256 239.041 279.929 239.041C279.565 239.041 279.27 239.145 279.044 239.354C278.819 239.563 278.685 239.842 278.642 240.191ZM286.056 239.636H285.485C285.383 239.459 285.236 239.317 285.043 239.21C284.85 239.097 284.63 239.041 284.383 239.041C283.992 239.041 283.668 239.18 283.41 239.459C283.158 239.738 283.032 240.078 283.032 240.48C283.032 240.882 283.158 241.223 283.41 241.502C283.668 241.78 283.992 241.92 284.383 241.92C284.63 241.92 284.85 241.866 285.043 241.759C285.236 241.646 285.383 241.502 285.485 241.325H286.056C285.928 241.662 285.716 241.928 285.421 242.121C285.126 242.309 284.78 242.402 284.383 242.402C283.853 242.402 283.405 242.22 283.04 241.856C282.681 241.486 282.502 241.027 282.502 240.48C282.502 239.933 282.681 239.478 283.04 239.113C283.405 238.743 283.853 238.558 284.383 238.558C284.78 238.558 285.126 238.655 285.421 238.848C285.716 239.035 285.928 239.298 286.056 239.636ZM288.928 238.558C289.421 238.558 289.804 238.711 290.078 239.016C290.357 239.317 290.496 239.705 290.496 240.183V242.298H289.965V240.183C289.965 239.845 289.877 239.571 289.7 239.362C289.523 239.148 289.265 239.041 288.928 239.041C288.585 239.041 288.284 239.161 288.027 239.403C287.77 239.644 287.641 239.966 287.641 240.368V242.298H287.11V236.917H287.641V239.121C287.936 238.746 288.365 238.558 288.928 238.558Z" fill="url(#paint16_linear_2257_666)"/>
</g>
<g opacity="0.6">
<rect x="160" width="54" height="31.5957" rx="6.89362" fill="#FCEEEC"/>
<rect x="160.287" y="0.287234" width="53.4255" height="31.0213" rx="6.60638" stroke="url(#paint17_linear_2257_666)" stroke-opacity="0.2" stroke-width="0.574468"/>
<path d="M173.271 14.4643H170.271V16.3784H173.214V16.8851H170.271V19.2979H169.716V13.9576H173.271V14.4643ZM177.277 16.105C177.631 16.4696 177.808 16.928 177.808 17.4802C177.808 18.0325 177.631 18.4909 177.277 18.8555C176.923 19.2201 176.478 19.4024 175.942 19.4024C175.406 19.4024 174.958 19.2201 174.599 18.8555C174.245 18.4909 174.068 18.0325 174.068 17.4802C174.068 16.928 174.245 16.4696 174.599 16.105C174.958 15.7404 175.406 15.5581 175.942 15.5581C176.478 15.5581 176.923 15.7404 177.277 16.105ZM176.907 18.5097C177.153 18.2309 177.277 17.8877 177.277 17.4802C177.277 17.0727 177.153 16.7323 176.907 16.4588C176.66 16.18 176.338 16.0406 175.942 16.0406C175.545 16.0406 175.221 16.18 174.969 16.4588C174.722 16.7323 174.599 17.0727 174.599 17.4802C174.599 17.8877 174.722 18.2309 174.969 18.5097C175.221 18.7831 175.545 18.9199 175.942 18.9199C176.338 18.9199 176.66 18.7831 176.907 18.5097ZM181.864 16.105C182.217 16.4696 182.394 16.928 182.394 17.4802C182.394 18.0325 182.217 18.4909 181.864 18.8555C181.51 19.2201 181.065 19.4024 180.528 19.4024C179.992 19.4024 179.545 19.2201 179.185 18.8555C178.832 18.4909 178.655 18.0325 178.655 17.4802C178.655 16.928 178.832 16.4696 179.185 16.105C179.545 15.7404 179.992 15.5581 180.528 15.5581C181.065 15.5581 181.51 15.7404 181.864 16.105ZM181.494 18.5097C181.74 18.2309 181.864 17.8877 181.864 17.4802C181.864 17.0727 181.74 16.7323 181.494 16.4588C181.247 16.18 180.925 16.0406 180.528 16.0406C180.132 16.0406 179.807 16.18 179.555 16.4588C179.309 16.7323 179.185 17.0727 179.185 17.4802C179.185 17.8877 179.309 18.2309 179.555 18.5097C179.807 18.7831 180.132 18.9199 180.528 18.9199C180.925 18.9199 181.247 18.7831 181.494 18.5097ZM183.724 18.8394C183.402 18.4641 183.241 18.011 183.241 17.4802C183.241 16.9494 183.402 16.4964 183.724 16.121C184.051 15.7457 184.501 15.5581 185.075 15.5581C185.359 15.5581 185.617 15.6117 185.847 15.7189C186.078 15.8261 186.257 15.9602 186.386 16.121V13.9174H186.917V19.2979H186.386V18.8394C186.257 19.0003 186.078 19.1343 185.847 19.2416C185.617 19.3488 185.359 19.4024 185.075 19.4024C184.501 19.4024 184.051 19.2147 183.724 18.8394ZM184.134 16.4669C183.893 16.7457 183.772 17.0835 183.772 17.4802C183.772 17.877 183.893 18.2175 184.134 18.5016C184.381 18.7804 184.694 18.9199 185.075 18.9199C185.45 18.9199 185.764 18.7965 186.016 18.5499C186.273 18.2979 186.402 17.9413 186.402 17.4802C186.402 17.0191 186.273 16.6653 186.016 16.4186C185.764 16.1666 185.45 16.0406 185.075 16.0406C184.694 16.0406 184.381 16.1827 184.134 16.4669ZM188.596 14.5688H189.127V15.6626H190.405V16.1452H189.127V18.1076C189.127 18.3649 189.188 18.5472 189.312 18.6544C189.435 18.7617 189.633 18.8153 189.907 18.8153H190.405V19.2979H189.899C189.443 19.2979 189.111 19.2094 188.901 19.0324C188.698 18.8555 188.596 18.5847 188.596 18.2201V16.1452H187.84V15.6626H188.596V14.5688ZM194.666 17.44C194.666 17.558 194.661 17.6357 194.65 17.6733H191.642C191.674 18.0271 191.814 18.3247 192.061 18.566C192.313 18.8019 192.613 18.9199 192.961 18.9199C193.471 18.9199 193.841 18.7215 194.071 18.3247H194.618C194.489 18.6679 194.28 18.9333 193.991 19.1209C193.707 19.3086 193.363 19.4024 192.961 19.4024C192.425 19.4024 191.98 19.2228 191.626 18.8636C191.272 18.499 191.095 18.0352 191.095 17.4722C191.095 16.9199 191.264 16.4642 191.602 16.105C191.945 15.7404 192.388 15.5581 192.929 15.5581C193.428 15.5581 193.841 15.7377 194.168 16.0969C194.5 16.4561 194.666 16.9039 194.666 17.44ZM191.642 17.1907H194.119C194.071 16.8529 193.942 16.5768 193.733 16.3623C193.524 16.1479 193.256 16.0406 192.929 16.0406C192.565 16.0406 192.27 16.1452 192.044 16.3543C191.819 16.5634 191.685 16.8422 191.642 17.1907ZM199.056 16.6358H198.485C198.383 16.4588 198.236 16.3167 198.043 16.2095C197.85 16.0969 197.63 16.0406 197.383 16.0406C196.992 16.0406 196.668 16.18 196.41 16.4588C196.158 16.7376 196.032 17.0781 196.032 17.4802C196.032 17.8824 196.158 18.2228 196.41 18.5016C196.668 18.7804 196.992 18.9199 197.383 18.9199C197.63 18.9199 197.85 18.8662 198.043 18.759C198.236 18.6464 198.383 18.5016 198.485 18.3247H199.056C198.928 18.6625 198.716 18.9279 198.421 19.1209C198.126 19.3086 197.78 19.4024 197.383 19.4024C196.853 19.4024 196.405 19.2201 196.04 18.8555C195.681 18.4856 195.502 18.0271 195.502 17.4802C195.502 16.9333 195.681 16.4776 196.04 16.113C196.405 15.743 196.853 15.5581 197.383 15.5581C197.78 15.5581 198.126 15.6546 198.421 15.8476C198.716 16.0353 198.928 16.298 199.056 16.6358ZM201.928 15.5581C202.421 15.5581 202.804 15.7109 203.078 16.0165C203.357 16.3167 203.496 16.7055 203.496 17.1827V19.2979H202.965V17.1827C202.965 16.8449 202.877 16.5714 202.7 16.3623C202.523 16.1479 202.265 16.0406 201.928 16.0406C201.585 16.0406 201.284 16.1613 201.027 16.4025C200.77 16.6438 200.641 16.9655 200.641 17.3676V19.2979H200.11V13.9174H200.641V16.121C200.936 15.7457 201.365 15.5581 201.928 15.5581Z" fill="url(#paint18_linear_2257_666)"/>
</g>
<rect x="328" y="9" width="94" height="55" rx="12" fill="#FCEEEC"/>
<rect x="328.5" y="9.5" width="93" height="54" rx="11.5" stroke="url(#paint19_linear_2257_666)" stroke-opacity="0.2"/>
<path d="M355.864 32.704H363.466V33.586H360.148V42H359.182V33.586H355.864V32.704ZM364.141 35.672H365.065V36.694C365.578 35.9753 366.418 35.616 367.585 35.616H367.753V36.456H367.599C366.815 36.456 366.194 36.68 365.737 37.128C365.289 37.576 365.065 38.178 365.065 38.934V42H364.141V35.672ZM371.964 35.49C372.841 35.49 373.551 35.7093 374.092 36.148C374.633 36.5773 374.904 37.1747 374.904 37.94V42H373.98V41.216C373.429 41.86 372.669 42.182 371.698 42.182C370.923 42.182 370.293 42.0047 369.808 41.65C369.323 41.2953 369.08 40.7867 369.08 40.124C369.08 39.4333 369.327 38.92 369.822 38.584C370.326 38.2387 370.97 38.066 371.754 38.066H373.98V37.94C373.98 37.3893 373.793 36.9833 373.42 36.722C373.056 36.4607 372.561 36.33 371.936 36.33C371.451 36.33 371.035 36.428 370.69 36.624C370.345 36.82 370.102 37.0767 369.962 37.394H368.968C369.155 36.7967 369.514 36.33 370.046 35.994C370.578 35.658 371.217 35.49 371.964 35.49ZM373.98 39.396V38.906H371.726C370.578 38.906 370.004 39.312 370.004 40.124C370.004 40.5253 370.158 40.8287 370.466 41.034C370.774 41.2393 371.189 41.342 371.712 41.342C372.412 41.342 372.963 41.1507 373.364 40.768C373.775 40.3853 373.98 39.928 373.98 39.396ZM382.786 35.672L379.902 42H378.95L376.066 35.672H377.088L379.454 40.908L381.82 35.672H382.786ZM389.76 38.766C389.76 38.9713 389.751 39.1067 389.732 39.172H384.496C384.552 39.788 384.795 40.306 385.224 40.726C385.663 41.1367 386.186 41.342 386.792 41.342C387.679 41.342 388.323 40.9967 388.724 40.306H389.676C389.452 40.9033 389.088 41.3653 388.584 41.692C388.09 42.0187 387.492 42.182 386.792 42.182C385.859 42.182 385.084 41.8693 384.468 41.244C383.852 40.6093 383.544 39.802 383.544 38.822C383.544 37.8607 383.838 37.0673 384.426 36.442C385.024 35.8073 385.794 35.49 386.736 35.49C387.604 35.49 388.323 35.8027 388.892 36.428C389.471 37.0533 389.76 37.8327 389.76 38.766ZM384.496 38.332H388.808C388.724 37.744 388.5 37.2633 388.136 36.89C387.772 36.5167 387.306 36.33 386.736 36.33C386.102 36.33 385.588 36.512 385.196 36.876C384.804 37.24 384.571 37.7253 384.496 38.332ZM391.662 32.634H392.586V42H391.662V32.634Z" fill="url(#paint20_linear_2257_666)"/>
</g>
<defs>
<filter id="filter0_f_2257_666" x="2" y="-70" width="436" height="406" filterUnits="userSpaceOnUse" color-interpolation-filters="sRGB">
<feFlood flood-opacity="0" result="BackgroundImageFix"/>
<feBlend mode="normal" in="SourceGraphic" in2="BackgroundImageFix" result="shape"/>
<feGaussianBlur stdDeviation="50" result="effect1_foregroundBlur_2257_666"/>
</filter>
<radialGradient id="paint0_radial_2257_666" cx="0" cy="0" r="1" gradientUnits="userSpaceOnUse" gradientTransform="translate(218 119.001) scale(285.5 124478)">
<stop stop-color="#6A1AB9"/>
<stop offset="1" stop-color="#6A1AB9" stop-opacity="0"/>
</radialGradient>
<radialGradient id="paint1_radial_2257_666" cx="0" cy="0" r="1" gradientUnits="userSpaceOnUse" gradientTransform="translate(218 238.999) scale(160 69760)">
<stop stop-color="#6A1AB9"/>
<stop offset="1" stop-color="#6A1AB9" stop-opacity="0"/>
</radialGradient>
<radialGradient id="paint2_radial_2257_666" cx="0" cy="0" r="1" gradientUnits="userSpaceOnUse" gradientTransform="translate(218 18.9993) scale(207 90252)">
<stop stop-color="#6A1AB9"/>
<stop offset="1" stop-color="#6A1AB9" stop-opacity="0"/>
</radialGradient>
<radialGradient id="paint3_radial_2257_666" cx="0" cy="0" r="1" gradientUnits="userSpaceOnUse" gradientTransform="translate(217.999 129) rotate(90.0003) scale(157.156 124478)">
<stop stop-color="#6A1AB9"/>
<stop offset="1" stop-color="#6A1AB9" stop-opacity="0"/>
</radialGradient>
<radialGradient id="paint4_radial_2257_666" cx="0" cy="0" r="1" gradientUnits="userSpaceOnUse" gradientTransform="translate(57.9993 129) rotate(90.0003) scale(157.156 124478)">
<stop stop-color="#6A1AB9"/>
<stop offset="1" stop-color="#6A1AB9" stop-opacity="0"/>
</radialGradient>
<radialGradient id="paint5_radial_2257_666" cx="0" cy="0" r="1" gradientUnits="userSpaceOnUse" gradientTransform="translate(377.999 129) rotate(90.0003) scale(157.156 124478)">
<stop stop-color="#6A1AB9"/>
<stop offset="1" stop-color="#6A1AB9" stop-opacity="0"/>
</radialGradient>
<linearGradient id="paint6_linear_2257_666" x1="53" y1="112.5" x2="63.1399" y2="119.3" gradientUnits="userSpaceOnUse">
<stop stop-color="#6A1AB9"/>
<stop offset="1" stop-color="#EB885A"/>
</linearGradient>
<linearGradient id="paint7_linear_2257_666" x1="373" y1="13.5" x2="383.14" y2="20.3003" gradientUnits="userSpaceOnUse">
<stop stop-color="#6A1AB9"/>
<stop offset="1" stop-color="#EB885A"/>
</linearGradient>
<linearGradient id="paint8_linear_2257_666" x1="121.509" y1="40.3443" x2="348.976" y2="149.762" gradientUnits="userSpaceOnUse">
<stop stop-color="#6A1AB9"/>
<stop offset="1" stop-color="#EB885A"/>
</linearGradient>
<linearGradient id="paint9_linear_2257_666" x1="12.3763" y1="32.3786" x2="99.8041" y2="38.6682" gradientUnits="userSpaceOnUse">
<stop stop-color="#6A1AB9"/>
<stop offset="1" stop-color="#EB885A"/>
</linearGradient>
<linearGradient id="paint10_linear_2257_666" x1="38.2226" y1="48.1671" x2="72.5829" y2="50.9837" gradientUnits="userSpaceOnUse">
<stop stop-color="#6A1AB9"/>
<stop offset="1" stop-color="#EB885A"/>
</linearGradient>
<linearGradient id="paint11_linear_2257_666" x1="52.3763" y1="212.379" x2="139.804" y2="218.668" gradientUnits="userSpaceOnUse">
<stop stop-color="#6A1AB9"/>
<stop offset="1" stop-color="#EB885A"/>
</linearGradient>
<linearGradient id="paint12_linear_2257_666" x1="80.4898" y1="228.167" x2="110.257" y2="230.277" gradientUnits="userSpaceOnUse">
<stop stop-color="#6A1AB9"/>
<stop offset="1" stop-color="#EB885A"/>
</linearGradient>
<linearGradient id="paint13_linear_2257_666" x1="332.376" y1="162.379" x2="419.804" y2="168.668" gradientUnits="userSpaceOnUse">
<stop stop-color="#6A1AB9"/>
<stop offset="1" stop-color="#EB885A"/>
</linearGradient>
<linearGradient id="paint14_linear_2257_666" x1="352.781" y1="178.167" x2="398.058" y2="183.082" gradientUnits="userSpaceOnUse">
<stop stop-color="#6A1AB9"/>
<stop offset="1" stop-color="#EB885A"/>
</linearGradient>
<linearGradient id="paint15_linear_2257_666" x1="249.514" y1="224.941" x2="299.739" y2="228.554" gradientUnits="userSpaceOnUse">
<stop stop-color="#6A1AB9"/>
<stop offset="1" stop-color="#EB885A"/>
</linearGradient>
<linearGradient id="paint16_linear_2257_666" x1="257.676" y1="233.974" x2="290.705" y2="238.524" gradientUnits="userSpaceOnUse">
<stop stop-color="#6A1AB9"/>
<stop offset="1" stop-color="#EB885A"/>
</linearGradient>
<linearGradient id="paint17_linear_2257_666" x1="162.514" y1="1.94088" x2="212.739" y2="5.55404" gradientUnits="userSpaceOnUse">
<stop stop-color="#6A1AB9"/>
<stop offset="1" stop-color="#EB885A"/>
</linearGradient>
<linearGradient id="paint18_linear_2257_666" x1="170.676" y1="10.9736" x2="203.705" y2="15.5236" gradientUnits="userSpaceOnUse">
<stop stop-color="#6A1AB9"/>
<stop offset="1" stop-color="#EB885A"/>
</linearGradient>
<linearGradient id="paint19_linear_2257_666" x1="332.376" y1="12.3786" x2="419.804" y2="18.6682" gradientUnits="userSpaceOnUse">
<stop stop-color="#6A1AB9"/>
<stop offset="1" stop-color="#EB885A"/>
</linearGradient>
<linearGradient id="paint20_linear_2257_666" x1="357.316" y1="28.1671" x2="393.506" y2="31.2941" gradientUnits="userSpaceOnUse">
<stop stop-color="#6A1AB9"/>
<stop offset="1" stop-color="#EB885A"/>
</linearGradient>
<clipPath id="clip0_2257_666">
<rect width="436" height="264" fill="white"/>
</clipPath>
<clipPath id="clip1_2257_666">
<rect width="283" height="226" fill="white" transform="translate(78 22)"/>
</clipPath>
</defs>
</svg>
